<?xml version="1.0" encoding="utf-8"?>
<!-- Generator: Adobe Illustrator 24.1.1, SVG Export Plug-In . SVG Version: 6.00 Build 0)  -->
<svg version="1.1" id="Layer_1" xmlns="http://www.w3.org/2000/svg" xmlns:xlink="http://www.w3.org/1999/xlink" x="0px" y="0px"
	 viewBox="0 0 298 390" style="enable-background:new 0 0 298 390;" xml:space="preserve">
<style type="text/css">
	.st0{clip-path:url(#SVGID_2_);}
	.st1{fill:url(#SVGID_3_);}
</style>
<g>
	<defs>
		<rect id="SVGID_1_" width="298" height="390"/>
	</defs>
	<clipPath id="SVGID_2_">
		<use xlink:href="#SVGID_1_"  style="overflow:visible;"/>
	</clipPath>
	<g class="st0">
		
			<linearGradient id="SVGID_3_" gradientUnits="userSpaceOnUse" x1="-72.9504" y1="287.1645" x2="342.0666" y2="96.8845" gradientTransform="matrix(1 0 0 -1 0 392)">
			<stop  offset="0" style="stop-color:#FBFB01;stop-opacity:0"/>
			<stop  offset="1" style="stop-color:#FBFB01"/>
		</linearGradient>
		<path class="st1" d="M305,233.4v-1.2c-3.4,3.8-6.8,7.6-7.6,8.6c-5.5,6.6-9.6,12.6-12.8,19.1c-2.9,6-6.4,10.1-11.6,14.2
			c-0.8,0.6-1.5,1.2-2.5,1.9l-2.5,1.8c-5.1,3.8-7.7,6.3-9.8,10.1c-2.2,3.9-5,6.6-8.7,8.8c-1,0.6-2.1,1.2-3.4,1.8l-3.2,1.5
			c-2.7,1.3-4.3,2.4-5.5,3.8c-1.6,1.9-3.4,3.3-6.6,5c-0.8,0.5-1.7,0.9-2.5,1.4c-1.1,0.6-1.9,1-2.7,1.5c-2,1.1-3.9,2.5-5.8,4.1
			c-1.4,1.2-2.9,3.9-4.6,8.4c-1.1,3-2.2,6.1-3.2,9.2c-3,9.1-3.9,11.7-5.3,14.5c-0.7,1.5-1.5,2.9-2.4,4.2c-1.2,1.9-5.4,7.5-6.1,8.7
			c-0.8,1.1-1.4,2.5-1.9,4.2c-0.6,2.3-1,4.6-1.4,8.9c-1.1,10.6-1.8,14.8-4.3,22.1c-2.1,6.3-3.5,9.9-5.1,13c-0.2,0.5-0.5,1-0.8,1.5
			l-1.9,3.6c-0.9,1.6-1.6,3.1-2.5,4.9c-2.4,4.8-4.1,10.6-5.1,16.9c-1.3,8.1-1.4,15.5-0.9,27.2c0.2,5.8,0.3,6.4,0.3,8.2
			c0,10.5,0.1,17.5,0.3,25.8c0.1,4.1,0.3,7.8,0.5,11.2h0.5c-0.6-9.6-0.8-21.8-0.8-37c0-1.9,0-2.4-0.3-8.3
			c-0.5-11.6-0.4-18.9,0.9-26.9c1-6.2,2.7-11.9,5-16.6c0.9-1.8,1.6-3.3,2.5-4.9c0.3-0.6,1.6-3,1.9-3.6c0.3-0.5,0.5-1,0.8-1.5
			c1.6-3.2,3-6.8,5.2-13.2c2.5-7.4,3.2-11.7,4.3-22.4c0.4-4.2,0.8-6.4,1.4-8.6c0.4-1.3,0.9-2.5,1.8-3.9c0.7-1.1,4.9-6.8,6.1-8.7
			c0.9-1.4,1.7-2.8,2.4-4.3c1.4-2.9,2.4-5.5,5.4-14.7c1-3.1,2.1-6.2,3.2-9.2c1.7-4.3,3.1-7,4.3-8.1c1.8-1.5,3.7-2.8,5.8-4
			c1.3-0.8,2.6-1.5,3.9-2.2l1.2-0.7c3.2-1.8,5.1-3.2,6.7-5.2c1.1-1.3,2.6-2.3,5.3-3.7l3.2-1.5c1.3-0.6,2.4-1.2,3.4-1.8
			c3.8-2.3,6.6-5.1,8.9-9.1c2.1-3.7,4.7-6.2,9.7-9.9l2.5-1.8c1-0.7,1.8-1.3,2.5-1.9c5.2-4.2,8.8-8.3,11.8-14.4
			c3.1-6.5,7.2-12.4,12.7-18.9C298.5,240.8,301.7,237.1,305,233.4v-64.6c-2.1,8.2-4.4,14.9-6.6,17.9c-1.3,1.8-2.8,4-4.7,6.9
			c-1.1,1.7-2.2,3.3-3.2,5l-0.7,1c-0.8,1.3-1.7,2.6-2.5,3.9c-3.9,6-6.7,10.1-9.1,13.2c-1.6,2.1-2,2.8-4.2,7.1
			c-3,6.1-6.1,8.6-15.1,11c-5.9,1.5-10.4,4.9-15.9,11.1c-0.9,0.9-3.8,4.3-3.6,4.1c-1.4,1.6-2.4,2.7-3.4,3.7
			c-2.9,2.8-5.4,4.2-8.1,4.2c-8.9,0-21.5,11.5-26.8,22.8c-6.2,13.4-16.3,27.7-23.5,31.2c-3.8,1.9-6.1,7.1-7.3,14.7
			c-0.7,4.4-0.8,8.3-0.8,13.8c0,0.8,0,1,0.1,3.6c0.2,5.2,0.2,8.7-0.4,13.3c-0.8,6.2-2.5,12.6-5.5,19.4
			c-7.2,16.7-11.9,46.6-11.9,71.7c0,2.4,0,4.3,0,8.8c0.1,10.8,0.1,15.8-0.1,22c-0.3,11.2-1.1,20.7-2.6,29.3h-0.5
			c1.5-8.6,2.3-18.1,2.6-29.4c0.2-6.1,0.2-11.1,0.1-21.9c0-4.5,0-6.4,0-8.8c0-25.3,4.7-55.5,12-72.3c2.9-6.7,4.6-13,5.4-19
			c0.6-4.4,0.6-7.9,0.4-12.9c-0.1-2.7-0.1-2.9-0.1-3.7c0-5.6,0.2-9.6,0.8-14.1c1.2-8,3.6-13.4,7.7-15.4c7-3.4,17-17.6,23.2-30.8
			c5.4-11.5,18.1-23.2,27.1-23.2c2.6,0,5.1-1.3,7.9-4.1c1-1,2-2.1,3.4-3.6c-0.2,0.2,2.8-3.2,3.6-4.1c5.6-6.2,10.2-9.7,16.1-11.2
			c8.9-2.3,11.9-4.8,14.8-10.6c2.2-4.4,2.6-5.2,4.3-7.3c2.4-3.1,5.2-7.1,9.1-13.1c0.8-1.3,1.7-2.6,2.5-3.9l0.7-1
			c1.1-1.7,2.2-3.3,3.2-5c1.9-2.9,3.4-5.1,4.7-7c2.3-3.2,4.7-10.6,6.9-19.4V233.4L305,233.4z M305,117.1c-0.3,0-0.7,0.1-1,0.1
			c-3.2,0.6-7.2,3.5-11.3,7.5c-1.9,1.8-4.4,2.7-7.3,2.7c-2.4,0-5-0.5-7.6-1.3c-0.9-0.3-1.7-0.6-2.4-0.9c-0.6-0.3-1.2-0.4-1.8-0.6
			c-2.9-0.5-5.8-0.8-8.6-0.9c-5.4-0.2-8.9,0.7-9.3,2.7c-0.2,1,0.3,2.6,1.6,4.9c0.5,1,1.2,2,2.1,3.5c0.8,1.3,1.7,2.7,2.5,4
			c0.7,1.2,1.6,1.9,2.8,2.5c0.4,0.2,0.4,0.2,1.4,0.5c1.8,0.7,2.6,1.3,3.2,2.6c0.7,1.8,0.7,4.5-0.1,8.9c-1.3,6.8-3,10.1-5.3,10.3
			c-1.9,0.2-3.9-1.3-7.5-5.1c-2.3-2.5-3.5-7.3-4.3-15.3c-0.1-0.9-0.2-1.8-0.3-2.9l-0.2-2.8c-0.5-6.6-1-9.2-1.9-10.1
			c-0.4-0.4-0.8-0.7-1.2-1c-1.2-0.8-2.4-1-4.2-0.9c-1.2,0.1-7.6,1-7.1,0.9c-10.7,1.4-14.9,5.1-19.2,15c-0.8,1.8-1.5,3.6-2.2,5.4
			l-1.2,3.1l-1.3,3.3c-2.1,5.4-3.7,8.5-5.4,11.1c-0.3,0.5-0.7,1-1.1,1.6l-2.1,2.9c-0.9,1.3-1.8,2.6-2.7,4c-2.4,3.7-5,8.6-8.4,15.4
			c-4.3,8.6-6.1,13.5-6.1,16c0,1.7,0.9,2.1,3.5,2.4c0.8,0.1,1.1,0.1,1.5,0.2c1.5,0.2,2.6,0.7,3.5,1.7c3.9,4.2,6,7.3,7.2,11.6
			c1.7,6.2,0.4,12.9-4.6,20.3c-4.3,6.3-5.8,10.4-5.9,15c0,1.2,0,1.9,0.1,4.4c0.4,6.5,0.1,10.7-1.5,17.4c-0.6,2.6-1.3,5.2-2.2,7.5
			c-1.5,4-2.8,5.7-5.5,7.7c-0.2,0.2-1.7,1.2-2.2,1.6c-0.9,0.7-1.8,1.4-2.6,2.1c-2.2,2-4.4,4.6-6.8,8.2c-4.4,6.5-6.9,14.6-8.3,25.1
			c-0.6,4.2-0.8,6.8-1.5,15.2c-0.7,8.6-1.1,12.6-2.1,16.6c-1.1,4.3-6.2,26.6-6.7,28.9c-1.1,4.5-2.2,9-3.3,13.4
			c-2.1,8.1-3.9,14.1-5.6,17.8c-2.8,6.5-4.7,14.4-7.1,28.4c-0.3,1.9-0.7,3.7-1,5.6c-0.9,5.4-1.5,8.6-2.2,11.9
			c-3.2,15.3-13.2,26.3-24.1,26.3c-5.8,0-10.7-2.7-16.1-8.6c-2.9-3.1-2.4-2.4-11.5-14.5c-7.4-9.8-9.2-10.7-10.6-6.9
			c-0.2,0.5-0.9,2.7-0.9,2.8c-0.8,2.1-1.6,4.1-2.6,5.9c-0.4,0.8-2.9,5.9-3.6,7.5c-1.2,2.6-2.2,4.8-3.1,6.9c-1,2.4-1.9,4.9-2.6,7.7
			c-0.7,2.6-1,5.3-1.4,10.6c-0.1,1.1-0.2,2.1-0.2,3.2h-0.5l0.2-3.3c0.4-5.5,0.7-8.2,1.4-10.9c0.8-2.8,1.7-5.4,2.7-7.8
			c0.9-2.1,1.9-4.4,3.1-7c0.8-1.6,3.2-6.7,3.6-7.5c0.9-1.8,1.7-3.7,2.5-5.8c0,0,0.8-2.3,1-2.8c1.7-4.5,3.7-3.4,11.3,6.7
			c9.2,12.1,8.6,11.4,11.5,14.5c5.3,5.7,10.1,8.4,15.8,8.4c10.7,0,20.5-10.8,23.6-25.7c0.8-3.9,1.5-7.8,2.2-11.8
			c0.3-1.9,0.7-3.7,1-5.6c2.5-14.2,4.4-22.1,7.2-28.7c1.6-3.7,3.4-9.6,5.5-17.6c1-3.9,2.1-8.3,3.3-13.4c0.5-2.3,5.6-24.6,6.7-28.9
			c1-3.8,1.4-7.8,2.1-16.3c0.6-8.4,0.9-11.1,1.5-15.3c1.5-10.7,4-18.9,8.5-25.6c2.1-3.3,4.4-6.1,6.9-8.4c0.9-0.8,1.7-1.5,2.6-2.2
			c0.5-0.4,2-1.4,2.2-1.6c2.6-1.9,3.9-3.6,5.3-7.3c0.7-1.9,1.4-4.3,2.1-7.4c1.5-6.6,1.8-10.6,1.4-16.9c-0.1-1.5-0.2-3-0.1-4.6
			c0.1-4.9,1.7-9.2,6.1-15.7c4.8-7.1,6-13.3,4.5-19c-1.1-4.1-3.2-7.1-7-11.2c-0.8-0.9-1.9-1.3-3.3-1.6c-0.4-0.1-0.7-0.1-1.5-0.2
			c-3-0.3-4-0.9-4-3.3c-0.1-2.8,1.8-7.9,6.2-16.7c3.4-6.8,6.1-11.7,8.5-15.5c0.9-1.5,1.8-2.7,2.7-4l2.1-2.9c0.4-0.6,0.8-1.1,1.1-1.6
			c1.7-2.6,3.2-5.7,5.3-10.9c0.4-1.1,0.9-2.2,1.3-3.3l1.2-3.1c0.9-2.4,1.6-4,2.2-5.5c4.4-10.2,8.8-14,19.3-15.3
			c-0.2,0,6.2-0.9,7.4-1c1.9-0.1,3.1,0.2,4.4,1c0.4,0.3,0.8,0.6,1.3,1c1.2,1.1,1.6,3.9,2.2,10.9l0.2,2.8c0.1,1.1,0.2,2,0.3,2.8
			c0.7,7.7,1.9,12.3,4,14.6c3.5,3.7,5.5,5.2,7.3,4.9c2.1-0.3,3.6-3.2,4.8-9.7c0.8-4,0.8-6.5,0.2-7.9c-0.5-1.1-1.2-1.6-2.9-2.3
			c-0.5-0.2-0.9-0.3-1.4-0.5c-1.3-0.6-2.3-1.4-3.1-2.7c-0.8-1.4-1.6-2.7-2.5-4c-0.7-1.2-1.4-2.4-2.1-3.6c-1.4-2.6-2-4.4-1.7-6
			c0.5-2.6,4.1-3.5,9.8-3.4c2.9,0.1,5.8,0.4,8.7,0.9c1.4,0.4,1.7,0.5,1.9,0.6c0.7,0.3,1.5,0.6,2.4,0.9c2.5,0.9,5,1.3,7.5,1.3
			c2.9,0,5.3-0.9,7.1-2.6c4.2-4.1,8.2-6.9,11.5-7.6c0.4-0.1,0.7-0.1,1.1-0.1V117.1L305,117.1z M305,16.2v1.5
			c-4.5,16.1-9,29.6-12.3,35.9c-1.7,3.2-3.9,4.9-7,5.6c-2.3,0.5-4.3,0.4-9.9-0.2c-5.1-0.6-7.9-0.4-10.6,0.8
			c-2.6,1.2-5.2,1.9-7.8,2.1l-1.2,0.1c-6.5,0.8-10,1.8-17,5.7c-2.3,1.3-4.8,2.5-7.4,3.5c-5.6,2-11.2,3.4-16.9,4
			c-3.9,0.5-6.8,0.6-10.5,0.6c-2.8,0-6.2,1.6-9.3,5.2c-4.3,4.9-7.8,12.9-10.1,24.5c-0.7,3.4-1.4,6.7-2.4,9.8
			c-1.9,6.2-3.6,9-6.9,12.2l-2.1,2c-2.9,2.7-5.5,6.1-7.9,10.3c-4.3,7.3-7.1,16.6-11.7,35.6l-1.1,4.5c-3.8,15.7-6,23.3-9,29.9
			c-4,8.7-10.5,14.4-20.9,20.1c-2.3,1.2-9.9,5.1-10,5.1c-3.6,1.9-6.1,3.3-8.1,4.9c-5.5,4.2-9.7,10.5-18.9,26.5l-0.9,1.5
			c-4.4,7.8-7,11.9-9.7,15.9c-2,2.9-4.1,5.7-6.7,8.9c-1.1,1.3-5.3,6.6-6.4,7.9c-6,7.5-9.6,13-12.8,20.1c-1.2,2.8-2.4,5.7-3.3,8.9
			c-2.1,6.9-3.2,13.2-4.8,25.1l-0.8,6.3c-0.3,2.4-0.6,4.5-0.9,6.6c-1.5,10.7-3.6,17.4-7.7,26.9l-2.1,5c-0.7,1.7-1.5,3.5-2.2,5.3
			c-0.8,1.9-1.4,4-1.8,6.3c-0.6,3.2-0.8,5.9-1,11.9c-0.3,10.1-0.7,15-2.4,22.7c-0.8,3.7-2.9,14-3.3,15.8c-0.5,2.5-1.2,5-1.9,7.4
			c-1.5,5.1-3.5,10.1-6.8,17c-3.1,6.4-4.6,10.9-5.5,16c-0.3,1.6-0.5,3.2-0.7,4.8l-0.2,1.8H3.8l0.3-2.1c0.3-2.1,0.5-3.5,0.7-4.9
			c0.9-5.3,2.5-9.9,5.6-16.4c3.3-6.8,5.3-11.7,6.7-16.8c0.7-2.4,1.3-4.8,1.8-7.3c0.4-1.8,2.5-12.1,3.3-15.8
			c1.6-7.5,2.1-12.4,2.4-22.3c0.2-6.1,0.4-8.9,1-12.2c0.4-2.3,1.1-4.6,1.9-6.5c0.7-1.7,1.3-3.4,2.2-5.3l2.1-5c4-9.5,6-16,7.6-26.5
			c0.3-2,0.6-4.1,0.9-6.6l0.8-6.3c1.5-12,2.7-18.4,4.8-25.4c1-3.1,2.1-6.1,3.4-9c3.2-7.1,6.9-12.7,12.9-20.3
			c1.1-1.3,5.3-6.6,6.4-7.9c2.6-3.2,4.7-6,6.7-8.9c2.8-4,5.3-8.1,9.7-15.8l0.9-1.5c9.2-16.1,13.5-22.4,19-26.7
			c2.1-1.6,4.6-3.1,8.2-5c0.1-0.1,7.7-3.9,10-5.1c10.3-5.6,16.8-11.3,20.7-19.8c3-6.5,5.1-14,8.9-29.6l1.1-4.5
			c4.6-19.1,7.5-28.5,11.8-35.9c2.4-4.2,5.1-7.7,8-10.4l2.1-2c3.3-3.1,4.9-5.8,6.7-11.8c0.9-3.1,1.7-6.3,2.3-9.7
			c2.4-11.8,5.9-20,10.4-25c3.2-3.7,6.7-5.3,9.6-5.3c3.6,0,6.6-0.1,10.5-0.6c5.6-0.6,11.3-1.9,16.8-4c2.6-1,5.1-2.1,7.4-3.5
			c7-4,10.6-5,17.1-5.8l1.2-0.1c3-0.4,5.1-0.9,7.7-2.1c2.8-1.3,5.6-1.4,11.7-0.7c4.7,0.5,6.7,0.6,8.9,0.1c3-0.6,5.2-2.3,6.7-5.3
			C295.7,46.4,300.3,32.5,305,16.2L305,16.2z M305,466.5c-0.7-4.6-1.1-10.6-1.7-20.3l-0.1-2l-0.1-2c-0.9-15.7-1.6-22-2.9-24.5
			c-1.3-2.5-1.6-5-1.3-8.6c0.1-0.6,0.1-1.1,0.2-2.2c0.4-3.5,0.4-5,0-6.8c-0.5-2.4-1.7-4.4-4-6.3c-2.6-2.1-3.4-4.8-2.5-8.4
			c0.3-1.5,0.9-3,1.8-5c0.5-1.2,2.8-6,2.6-5.5c3.2-6.7,4.7-11.3,4.7-16.5c0-2.5,0.3-5,0.8-7.3c0.6-2.3,1.5-4.2,2.5-5.6v1.3
			c-0.9,1.4-1.7,3.1-2.1,5.2c-0.5,2-0.7,4.2-0.7,6.5c0,5.5-1.5,10.3-4.8,17.2c0.2-0.4-2.1,4.3-2.6,5.5c-0.9,1.9-1.4,3.4-1.7,4.8
			c-0.7,3-0.1,5.2,2.3,7.1c2.4,2,3.8,4.2,4.3,6.8c0.4,2,0.4,3.7,0,7.4c-0.1,1-0.2,1.5-0.2,2.1c-0.2,3.3,0,5.6,1.2,7.8
			c1.4,2.7,2.1,9,3,25.1l0.1,2l0.1,2c0.4,7,0.8,12.1,1.2,16V466.5L305,466.5z M305,404.3c-0.7-3.1-2.3-9.9-2.6-11.2
			c-0.5-2.5-0.6-3.8-0.5-5.2c0.1-0.8,1.1-4.7,1.2-5.3c0.8-3.6,1.4-7.4,1.8-11.2v4c-0.4,2.6-0.8,5.1-1.4,7.6
			c-0.2,0.8-1.1,4.5-1.2,5.2c-0.1,1.1,0,2.2,0.5,4.6c0.2,1,1.3,5.7,2.1,9.1V404.3z M305,319.2c-0.9,1.7-1.9,2.9-3.3,4.1
			c-0.1,0.1-7.2,5.5-10.6,8.4c-4.8,4.3-8.7,5.9-11.9,5.3c-2.6-0.5-4.7-2.3-7.7-5.9l-1.7-2.1c-0.9-1.2-1.9-2.3-2.8-3.3
			c-2.1-2.2-1.7-5.8,0.8-10.5c1.9-3.7,5-7.9,9.7-13.8l2.3-2.8c9.3-11.3,9.4-11.5,11.5-14.7c5.8-9,10.2-14,13.6-15.1v1
			c-3.3,1.1-7.6,6-13.3,14.9c-2.1,3.3-2.2,3.4-11.6,14.8c-0.8,0.9-1.5,1.9-2.3,2.8c-4.7,5.8-7.7,10.1-9.6,13.7
			c-2.2,4.3-2.6,7.1-0.9,8.9c0.9,0.9,1.7,1.9,2.9,3.3l1.7,2.1c2.9,3.6,4.9,5.3,7.4,5.8c3.2,0.6,6.9-0.9,11.7-5.2
			c3.3-3,10.5-8.4,10.6-8.4c1.6-1.4,2.6-2.7,3.5-4.7V319.2L305,319.2z M305,277.8v1c-3.4,0.3-6.3,3.1-10.2,9.1l-2.4,3.7
			c-0.7,1.1-1.5,2.2-2.3,3.1c-0.4,0.5-2.9,3.3-3.2,3.8c-1.7,2-3.2,3.8-4.6,5.6c-1.5,1.9-2.9,3.8-4.2,5.9c-2.4,3.7-3.8,6.9-4.1,9.4
			c-0.3,2.7,0.8,4.5,3.7,5.5c5.5,1.8,10.8,0,15.8-4.7c3.3-3.1,6.3-7.2,8.9-12.2c1.1-2.3,2-4.8,2.8-7.4v1.9c-0.7,2.2-1.5,4.3-2.4,6.2
			c-2.6,5.1-5.7,9.3-9,12.4c-5,4.7-10.4,6.6-16.1,4.7c-3.1-1-4.5-3.3-4.1-6.7c0.3-2.7,1.8-6.1,4.3-9.9c1.2-1.9,2.6-3.9,4.3-6
			c1.4-1.8,2.9-3.6,4.6-5.6c0.4-0.4,2.8-3.2,3.2-3.8c0.7-0.8,1.3-1.8,2.2-3.1c0.4-0.6,2-3.1,2.4-3.7
			C298.5,281,301.4,278.1,305,277.8L305,277.8z M305,123.2v1c-0.9-0.2-2.2,0.2-4.1,1.5c-5.2,3.8-7.2,5.1-9.9,6.8
			c-0.9,0.6-1.4,0.8-2,1.2c-0.8,0.5-1.6,0.8-3.5,1.2c-0.5,0.1-0.9,0.2-1.4,0.3c-4,0.9-5.8,2.5-5.8,6.1c0,4.5,1.5,13.2,4.1,25.8
			c0.5,2.5,0.9,5,1.2,7.6c0.1,1.2,0.3,2.3,0.4,3.5c1,7.6,1.6,10.7,2.9,11.7c1.1,0.9,2.4,0.6,3.9-0.7c1.8-1.7,3.7-4.9,5.8-9.5
			c0.8-1.7,1.5-3.5,2.4-5.6l1.6-4.1c1.3-3.2,3.1-12.2,4.3-20.2v3.5c-1.2,7.2-2.7,14.5-3.9,17.4c-0.2,0.6-1.4,3.5-1.6,4.1
			c-0.8,2.1-1.6,3.9-2.4,5.6c-2.1,4.6-4.1,7.9-6,9.7c-1.5,1.4-3,1.8-4.3,0.7c-1.5-1.1-2.2-4.3-3.2-12.4c-0.1-1.2-0.3-2.3-0.4-3.5
			c-0.4-3.2-0.8-5.5-1.2-7.5c-2.7-12.8-4.2-21.6-4.2-26.2c0-4.4,2-6.1,6.3-7.1c0.5-0.1,0.9-0.2,1.4-0.3c1.8-0.4,2.7-0.6,3.4-1.1
			c0.7-0.4,1.1-0.7,2-1.3c2.8-1.7,4.7-3,9.9-6.7C302.6,123.5,304,123,305,123.2L305,123.2z M-6,200.3c5.3-11.3,9.4-23.2,12-35.4
			c1.7-8.1,3.2-16.1,5.6-30.6l0.8-4.8c3.4-19.9,5.2-29.8,7.7-39.6c3.1-12.7,6.5-21.2,10.5-25.5c3.5-3.8,5.3-7.9,6.3-13.2
			c0.4-2.1,0.7-4.3,1-6.6c0.6-5.2,1.1-7.6,2-10.4c1.3-3.6,3.2-6.5,6.3-9c8.2-6.6,8.7-7,9.4-9c0.3-1,0.4-2.2,0.4-4.5
			c0-0.7-0.1-3.8-0.1-4c-0.1-1.8-0.1-3.7-0.1-5.6c0-10,0.1-11.4,1.2-13.2c0.3-0.4,0.6-0.8,1.1-1.3c0.1-0.1,1.1-1.1,1.5-1.5
			c1.7-1.7,3.2-3.7,4.7-5.9c1.1-1.5,1.4-2.1,4.2-7.9c2-4.1,3.2-6.4,4.6-8.1c1.9-2.3,3.7-3.1,5.6-2.1c2.3,1.2,5.6,2,9.7,2.5
			c3.6,0.4,6.7,0.5,11.4,0.5c2.5,0,4.6,0.5,8,1.6c4,1.3,4.8,1.5,6.4,1.5c2.1,0,3.9-0.9,5.5-3c2.6-3.2,4.2-4.7,5.8-5.2
			c1.9-0.6,2.5-0.5,8.6,2.1c8.9,3.7,16,1.4,21.3-9.7c2.6-5.5,2.8-8.9,1.8-14.8c-0.4-2.4-0.5-3.1-0.6-4.3c-0.1-2.5,0.3-4.7,1.4-6.9
			c1.4-2.7,2.4-9.2,3.2-18.3h1.1c-0.8,9.7-2,16.7-3.5,19.7c-0.9,1.8-1.2,3.4-1.1,5.3c0.1,1,0.2,1.6,0.6,3.9c1.2,6.5,0.9,10.7-2,16.8
			c-5.6,11.7-13,14.1-22.3,10.3c-5.9-2.5-6.5-2.6-8.2-2.1c-1.4,0.5-2.9,1.8-5.4,4.9c-1.8,2.2-3.9,3.4-6.1,3.3
			c-1.7,0-2.5-0.2-6.6-1.6c-3.3-1.1-5.3-1.5-7.8-1.5c-4.7,0-7.8-0.1-11.4-0.5c-4.2-0.5-7.6-1.3-10-2.5c-2.9-1.5-5.3,1.4-9.3,9.7
			c-2.9,5.9-3.2,6.5-4.3,8.2c-1.5,2.3-3.2,4.3-4.9,6c-0.4,0.4-1.3,1.4-1.5,1.5C58-10,57.8-9.7,57.6-9.4C56.8-8.2,56.7-7,56.7,2.2
			c0,1.9,0,3.5,0.1,5.4c0,0.2,0.1,3.3,0.1,4c0.1,2.8-0.1,4.3-0.6,5.7c-0.9,2.5-1.2,2.8-9.8,9.7c-2.8,2.3-4.7,5-5.8,8.2
			c-0.9,2.5-1.3,4.7-1.9,9.7c-0.4,3.5-0.6,4.9-1,6.8c-1.1,5.7-3.1,10.2-6.8,14.2c-3.8,4.1-7,12.3-10.1,24.7
			c-2.4,9.6-4.2,19.5-7.6,39.3l-0.8,4.8c-2.5,14.5-3.9,22.5-5.6,30.7c-2.7,13-7.2,25.7-12.9,37.6V200.3L-6,200.3z M-6,278.3v-0.5
			l0.5,0c3.3,0,3.9,5.2,2.4,13.4c-0.8,4-1.7,7.7-2.9,11.3v-1.9c1-3.1,1.8-6.3,2.4-9.7c1.4-7.6,0.9-12-1.9-12c-0.2,0-0.3,0-0.5,0
			v-46.6c2.4-2.7,4.8-5.5,7.1-8.3c7.1-9.5,15.4-37.6,15.4-53.6c0-18.1,11.2-72.7,16.7-79.4c6.6-8.1,16.7-28,18.6-37.8
			c1-5.3,2.9-7.3,7.5-9.4c3.2-1.4,4.5-2.4,5.5-4.8c0.8-1.7,1.4-4.8,2.2-10.3c0.1-0.8,1-6.7,1.3-8.5c1.9-12.1,3.8-18.5,7-20.4
			c1.3-0.8,1.6-1,5-3.7c3.9-3,6.2-4.4,8.9-4.9c3.5-0.7,6.8,0.8,10.1,4.7c2.8,3.3,6.3,4.7,10.5,4.6c3.1-0.1,6.3-1.1,10.3-2.8
			c0.9-0.4,3.8-1.7,4.3-1.9c1.4-0.6,2.3-0.9,2.8-0.9c2.6,0,4.6-0.1,7.4-0.3c4.1-0.3,8.1-0.9,11.8-1.9c4.4-1.1,8.2-2.7,11.3-4.8
			c9.8-6.6,16.9-18.3,17.5-27.6c0.2-2.6,0.2-3,1.4-11.1c1.2-8,1.7-12.9,1.4-18.2c-0.1-2.2-0.4-4.4-0.8-6.4
			c-0.8-3.9-1.4-9.4-1.8-16.2h0.5c0.4,6.5,1,11.7,1.8,15.8c0.4,2.1,0.7,4.4,0.8,6.7c0.3,5.5-0.2,10.5-1.4,18.6
			c-1.2,8.1-1.3,8.5-1.4,11c-0.6,9.8-7.8,21.7-17.8,28.4c-3.1,2.1-7,3.7-11.4,4.9c-3.7,1-7.7,1.6-11.8,1.9c-2.7,0.2-4.8,0.3-7.4,0.3
			c-0.5,0-1.4,0.3-2.7,0.9c-0.5,0.2-3.3,1.5-4.3,1.9c-4,1.7-7.2,2.7-10.4,2.8c-4.2,0.2-7.8-1.3-10.7-4.7c-3.2-3.8-6.4-5.2-9.8-4.5
			C86.7-7.4,84.4-6,80.5-3c-3.5,2.7-3.8,3-5.1,3.7c-3,1.8-4.8,8-6.6,19.7c-0.3,1.8-1.1,7.7-1.3,8.5c-0.9,5.7-1.5,8.8-2.3,10.7
			c-1.2,2.6-2.5,3.6-6.2,5.3c-4,1.8-5.8,3.7-6.7,8.5c-1.9,10-12.1,30.1-18.8,38.3c-5.4,6.6-16.5,60.8-16.5,78.6
			c0,16.3-8.4,44.8-15.7,54.4c-1.1,1.5-4.3,5.1-7.4,8.7v-1.2V278.3L-6,278.3z M-6,104.6v-1.1c3.8-3.8,7.5-10.2,11.3-19
			c2-4.6,7.4-18.8,8.2-20.6c0.9-2,2.1-4,3.8-6.5c0.6-0.8,2.6-3.6,2.8-4c4.9-6.9,7.3-12,8.3-19.4c0.4-3,0.8-6.8,1.3-12.3
			c0.1-1.4,1-12.5,1.3-15.8c1.5-16.8,3-26.8,5.2-32.1c5.6-13.2,10.3-27.5,10.3-32.7c0-2.5,0.2-3.4,3.1-15.7c0.4-1.5,0.6-2.7,0.9-3.9
			c1.3-5.8,2-10,2.1-13.4h0.5c-0.1,3.5-0.9,7.9-2.2,13.8c-0.3,1.2-0.6,2.5-0.9,4c-2.9,12-3.1,13-3.1,15.3c0,5.5-4.7,19.8-10.4,33.3
			c-2.2,5.1-3.6,15.1-5.1,31.6c-0.3,3.3-1.2,14.3-1.3,15.8c-0.5,5.6-0.9,9.4-1.3,12.4c-1.1,7.7-3.5,12.9-8.5,19.9l-2.8,4
			c-1.7,2.5-2.9,4.3-3.8,6.3c-0.8,1.7-6.2,15.9-8.2,20.5C1.8,94.1-2,100.7-6,104.6L-6,104.6z M-6,466.5v-4.3
			c0.2,2.4,0.5,4.4,0.8,6.2c1,6,2.4,8.3,4.2,6.6c9.8-8.9,17.5-24.1,17.5-39.6c0-16.2,3.3-32,8.9-46.3c1-2.5,1.9-4.4,2.9-6
			c0.4-0.6,0.8-1.2,1.2-1.8l1-1.4c1.9-2.7,2.8-5.3,3.7-12.6c0.4-3.1,0.7-5,2.2-13.3l0.3-1.9c1.7-9.6,2.4-15,2.2-18.7
			c-0.2-4.4-2-5.2-5.9-1.6c-1.5,1.4-3.1,2.7-4.7,3.7c-7.2,4.7-14,5.8-22.1,5.4l-1,0l-0.8,0c-2.7,0-5.3,1-7.8,3
			c-0.9,0.7-1.8,1.7-2.6,2.9v-1.3c0.7-1,1.5-1.9,2.4-2.6c2.8-2.2,5.8-3.2,8.8-3l1,0c8.1,0.4,14.8-0.8,21.9-5.4
			c1.6-1,3.2-2.3,4.7-3.7c4.2-3.8,6.3-2.9,6.6,2.4c0.2,3.9-0.5,9.3-2.2,19.1l-0.3,1.9c-1.5,8.2-1.8,10.2-2.2,13.2
			c-0.9,7.5-1.9,10.3-3.9,13.2l-1,1.4c-0.4,0.6-0.8,1.1-1.2,1.8c-1,1.7-2,3.7-2.8,5.8c-5.5,14.2-8.8,29.7-8.8,45.7
			c0,15.9-7.8,31.5-17.8,40.5c-2.2,2-3.8-0.7-5-7.2C-5.8,468-5.9,467.2-6,466.5L-6,466.5z M-6,404.3v-2.5l0.8,3.3
			c1.1,4.8,1.8,10.3,2.2,16.8c0.3,5.3,0.4,9.3,0.5,18.5c0.1,9.3,0.3,12.8,0.8,15.1c0.7,2.6,1.9,2.4,4.3-1.5
			c8.9-14.3,11.3-22.9,11.3-38.6c0-7.2,0.6-12.4,1.9-17.7c1.2-4.7,1.9-6.6,6.9-19.6c1.2-3.1,2.5-6.1,3.9-8.8
			c0.6-1.1,1.2-2.1,1.8-3.1c0.2-0.3,0.3-0.5,0.5-0.7c0.6-0.9,1-2,1.4-3.3c0.5-1.9,0.9-3.9,1.2-5.9l0.2-1.2l0.2-1.1
			c0.2-0.9,0.2-1.6,0.3-2.2c0.2-1.5,0.4-2.7,0.5-3.7c0.2-2.2,0.1-3.5-0.4-4.2c-1.2-1.6-4.8-0.2-12.3,4.9c-4.9,3.4-8.4,4.2-14.4,4.3
			c-4,0.1-5.4,0.4-6.9,2.1c-1.8,2.1-3,6.4-3.9,14.3c-0.3,2.2-0.5,4.2-0.8,6v-4l0.3-2.2c0.9-8.1,2.2-12.6,4.2-14.9
			c1.6-1.9,3-2.2,7.1-2.3c6-0.1,9.4-0.8,14.3-4.2c7.7-5.3,11.4-6.7,12.8-4.8c0.7,0.9,0.9,2.6,0.7,5.2c-0.1,1.3-0.3,2.5-0.5,3.8
			l-0.3,2.2l-0.2,1.2l-0.2,1.2c-0.3,2.1-0.7,4.1-1.2,6.1c-0.4,1.5-0.8,2.5-1.5,3.6l-0.5,0.8l-0.5,0.8c-0.5,0.7-0.9,1.4-1.3,2.2
			c-1.4,2.7-2.7,5.6-3.9,8.7c-5,12.9-5.7,14.9-6.9,19.5c-1.3,5.2-1.9,10.2-1.9,17.2c0,16-2.5,24.9-11.5,39.4
			c-2.6,4.2-4.2,4.6-5.1,1.2c-0.6-2.5-0.8-5.9-0.9-15.5c-0.1-9.2-0.2-13.2-0.5-18.4c-0.4-6.3-1.1-11.8-2.2-16.5L-6,404.3L-6,404.3z
			 M190.6-91.8h0.5l0.8,5.3c1.7,11.6,2.5,19.3,2.7,27.8c0.3,11-0.8,21.3-3.4,31.2c-4,15.1-10.6,26.5-18.8,34.1
			c-6.4,6-13.5,9.2-18.8,9.2c-3.5,0-8.9,1.4-19.3,4.6l-1.2,0.4c-12.7,4-16.4,5-19.4,5c-1.8,0-2.1-0.1-10.1-2.8
			c-1.8-0.6-3.3-1.1-4.7-1.5c-10.5-3-16.1-1.2-16.6,7.9c-0.1,0.9-0.1,1.7-0.2,2.8l-0.1,2.7c-0.6,10.9-1,15.7-2.2,20
			c-1.5,5.3-4,8-8.1,8c-5.3,0-6.7,0.6-8,3.2c0.3-0.5-2.6,5.9-4.2,8.7c-1.4,2.5-7.4,12.6-8.2,13.8c-1.1,1.9-2.3,3.9-3.4,5.9
			c-3.6,6.5-6.1,11.8-7.6,16.2c-3.1,9.3-5.4,18-6.1,24.1c-0.9,8.3,1.9,9.5,9.9,1.2c7.5-7.9,15.2-15.2,23.1-21.9
			c1.8-1.6,7.3-6.2,8.1-7c2.6-2.3,4.3-3.8,5.6-5.2l1-1.1l1.1-1.2c0.9-0.9,1.8-1.8,2.6-2.6c9.4-8.7,17.9-10.5,26.1-1.2
			c11.9,13.3,19.8,37,19.8,56.5c0,19.1-0.4,25.1-2.7,33.2c-0.7,2.5-1.6,4.9-2.6,7.1c-3.4,7.8-6.1,16.2-6.6,21.3
			c-0.6,6.3,2.4,7,10.5-0.1c6.9-6.1,11.6-15,14.8-26.3c1.3-4.8,2.4-9.9,3.2-15.1c0.5-3,1.6-11.7,1.8-12.5c0.2-1.7,0.5-3.3,0.9-4.8
			c3.9-14.9,10.9-30.5,18.8-37.3c3.9-3.4,6.7-9.7,10.1-20.8c0.4-1.5,2.2-7.6,2.7-9.2c1.8-6.1,3.2-9.7,4.9-12
			c5.3-7.4,14.9-11.1,26.1-11.1c3.9,0,8.6-1.2,14.3-3.6c2.6-1.1,5.2-2.3,7.8-3.5c-0.7,0.3,8.1-4,10.1-4.9c7.3-3.3,21.3-5,33.2-5
			c9,0,14.4-9.2,20-38.7c3.4-18.2,3.4-26.4,1.4-34.4l-0.6-2.4c-0.5-1.9-0.8-4-0.8-6.1c0-4,0-4,1.3-24.6c0.2-3.7,0.4-6.7,0.6-9.6
			c0.5-8.5,0.7-15.2,0.7-20.8c0-0.9,0-1.9,0-3h0.5c0,1.1,0,2.1,0,3c0,5.7-0.2,12.4-0.7,20.9c-0.2,2.9-0.3,5.9-0.6,9.7
			C299-37.8,299-37.7,299-33.8c0,2,0.2,3.6,0.8,5.7c0.1,0.5,0.6,2.4,0.6,2.4c2.1,8.2,2.1,16.7-1.4,35.1
			c-5.6,29.8-11.2,39.3-20.5,39.3c-11.9,0-25.8,1.7-33.1,5c-2,0.9-10.7,5.2-10.1,4.9c-2.6,1.3-5.2,2.4-7.8,3.5
			c-5.7,2.4-10.4,3.6-14.4,3.6c-11.1,0-20.6,3.7-25.8,10.9c-1.6,2.2-2.9,5.7-4.7,11.7c-0.5,1.5-2.2,7.7-2.7,9.2
			c-3.4,11.3-6.2,17.7-10.3,21.2c-7.7,6.6-14.7,22-18.5,36.8c-0.4,1.5-0.7,3.1-0.9,4.7c-0.1,0.8-1.3,9.5-1.8,12.5
			c-0.8,5.3-1.9,10.4-3.2,15.3c-3.2,11.6-8,20.6-15,26.8c-8.3,7.4-11.9,6.6-11.2-1c0.5-5.3,3.3-13.8,6.7-21.7c0.9-2.2,1.8-4.5,2.5-7
			c2.3-7.9,2.6-13.8,2.6-32.7c0-19-7.9-42.4-19.6-55.6c-8.1-9.1-16.4-7.4-25.6,1.2c-1.3,1.2-2.5,2.4-3.7,3.7l-1,1.1
			c-1.8,1.9-3.7,3.6-5.6,5.2c-0.9,0.7-6.3,5.4-8.1,7c-7.8,6.7-15.5,14-23,21.9c-8.3,8.7-11.6,7.2-10.6-2.3c0.6-6.2,3-15,6.1-24.4
			c1.5-4.5,4-9.8,7.7-16.3c1-1.9,2.1-3.8,3.4-5.9c0.8-1.3,6.7-11.3,8.2-13.8c1.6-2.8,4.5-9.1,4.2-8.7c1.5-2.8,3-3.5,8.4-3.5
			c3.9,0,6.2-2.4,7.6-7.4c1.1-4.1,1.6-8.8,2.2-19.6l0.1-2.7l0.2-2.8c0.3-5.4,2.3-8.5,5.8-9.6c2.8-0.9,6.5-0.5,11.3,0.9
			c1.4,0.4,2.8,0.9,4.7,1.5c7.9,2.7,8.3,2.8,10,2.8c3,0,6.7-1,19.3-5l1.2-0.4c10.4-3.3,15.8-4.6,19.4-4.6c5.2,0,12.2-3.2,18.5-9.1
			c8.1-7.5,14.6-18.7,18.5-33.7c2.6-9.8,3.6-19.8,3.4-30.7c-0.2-8.4-1-16.1-2.7-27.6L190.6-91.8z M197.7-91.8h0.5
			c0.4,3.9,1,8.7,1.8,14.9c1.9,14.1,1.6,27-0.4,38.8c-1.2,7.6-3.2,14.6-5.9,20.7c-3,6.9-6.4,13.2-10,18.8
			c-5.9,9-12.1,15.5-18.6,18.4c-3.9,1.7-7.8,3-11.7,4.1c-1.6,0.4-3.3,0.9-5.3,1.3l-4.9,1.1c-6,1.4-9,2.6-11.2,4.5
			c-4.8,4.2-14.7,6-25.5,6c-0.7,0-1.5-0.1-2.2-0.4c-1.4-0.4-2.6-1-4.7-2.3c-3.8-2.2-5-2.8-6.5-2.6c-2,0.2-3.4,2.3-4.4,6.9
			c-1,4.7-1.3,7.5-1.7,15c-0.6,9-1.5,12.1-5.2,14.3c-1.2,0.7-2.4,1.6-3.5,2.7c-0.3,0.3-0.6,0.6-0.9,1l-0.7,0.9c-1,1.1-2,1.5-4.8,1.5
			c-1.7,0-4.6-0.6-4.9-0.4c-0.6,0.3-0.4-0.1-3.7,6.2c-0.8,1.5-1.8,3.2-3.3,5.4c-0.8,1.2-3.7,5.4-4.1,6c-2.6,3.8-4.3,6.6-5.7,9.4
			c-2.5,5-3.6,9.2-2.9,12.7c0.7,3.7,2.1,4.4,4.6,2.8c1.4-1,2.7-2.1,4-3.5c0.8-0.8,4-4.1,4.9-5c2.1-2.1,4.2-4,6.4-5.7
			c1.9-1.5,3.8-3.1,5.7-4.8c1.1-1,5.6-5.2,6.7-6.2c2.3-2.1,4.2-3.8,6-5.3c8.9-7.3,15.2-9.9,19.5-6.7l2.8,2.1
			c1.2,0.9,2.2,1.6,3.1,2.4c2.3,1.8,4.6,3.8,6.8,6c9.5,9.6,15.7,22.1,18,39.9c3.6,27.9,1.9,45.5-4.2,62.4c-2.1,5.8-1.8,9.2,0,9
			c2.1-0.3,5.3-5,7.8-12.5c1.6-4.8,2.6-10.5,4.2-21.5l0.9-6.4c0.3-2.5,0.6-4.5,0.9-6.5c2.6-16.6,5.7-27.3,11.2-34.8
			c3.7-5.1,12.3-15.5,13.2-16.8c3.5-4.8,5.5-9.4,7.4-18c4-17.4,10.9-24.3,23.1-24.3c4.9,0,9.3-1.1,15.3-3.5c1.1-0.4,2.1-0.8,3.2-1.3
			c1.2-0.5,2.1-0.8,2.9-1.1c2.1-0.7,3.6-1.1,5-1.1c2.3,0,4.9-1,16.3-6l1.5-0.7c8.5-3.7,13.3-5.4,16.4-5.4c0.8,0,1.2,0,3.3,0.1
			c4,0.2,6.4,0.1,9-0.2c8.5-1.1,13.9-5.4,15.4-14.6c0.5-3,1.1-6,1.8-8.8c-0.1,0.3,1.2-5,1.5-6.4c2.8-12.3,2.9-21.9-0.7-39.5
			c-1.4-6.7-2.3-13.6-2.7-20.7c-0.8-12-0.7-23.1,0.1-40.4l0.1-2.1h0.5l-0.1,2.2c-0.8,17.2-0.9,28.2-0.1,40.2
			c0.5,7,1.4,13.9,2.7,20.5c3.7,17.8,3.6,27.7,0.7,40.2c-0.3,1.4-1.6,6.7-1.5,6.4c-0.7,2.8-1.3,5.8-1.8,8.7
			c-1.7,9.7-7.2,14.2-15.9,15.2c-2.6,0.3-5,0.4-9,0.2c-2.1-0.1-2.5-0.1-3.3-0.1c-3.1,0-7.9,1.7-16.3,5.3l-1.5,0.7
			c-11.5,5-14,6-16.4,6c-1.3,0-2.8,0.4-4.9,1.1c-0.8,0.3-1.7,0.6-2.9,1.1c-1.1,0.4-2.1,0.9-3.2,1.3c-6.1,2.4-10.5,3.5-15.4,3.5
			c-11.9,0-18.7,6.7-22.6,23.7c-2,8.8-4.1,13.6-7.6,18.5c-0.9,1.3-9.5,11.7-13.2,16.8c-5.4,7.3-8.4,17.9-11,34.2
			c-0.3,2-0.6,4-0.9,6.5l-0.9,6.4c-1.5,11.2-2.6,16.9-4.2,21.8c-2.6,7.8-5.9,12.7-8.2,13c-2.4,0.3-2.7-4.2-0.5-10.5
			c6-16.6,7.7-34,4.1-61.6c-2.3-17.4-8.4-29.7-17.8-39.2c-2.1-2.1-4.3-4-6.7-6c-1-0.8-1.9-1.5-3.1-2.4l-2.8-2.1
			c-4.2-3.1-10.4-0.6-19.1,6.6c-1.8,1.5-3.7,3.2-6,5.3l-6.7,6.2c-2.4,2.2-4.2,3.8-5.8,4.9c-2.2,1.6-4.3,3.5-6.3,5.6
			c-0.8,0.8-4.1,4.2-4.9,5c-1.3,1.4-2.7,2.6-4.1,3.5c-2.7,1.8-4.5,0.9-5.3-3.4c-0.8-4,0.3-8.5,3-13.7c1.4-2.8,3.2-5.7,5.8-9.5
			c0.4-0.6,3.3-4.9,4.1-6c1.1-1.6,2.2-3.4,3.2-5.3c3.5-6.7,3.2-6.2,3.9-6.5c0.5-0.2,3.5,0.4,5,0.4c2.7,0,3.6-0.3,4.5-1.4l0.7-0.8
			c0.3-0.4,0.6-0.7,1-1.1c1.2-1.1,2.4-2,3.6-2.7c3.4-2,4.3-4.8,4.8-13.5c0.5-7.5,0.8-10.5,1.8-15.2c1-5,2.6-7.3,4.8-7.5
			c1.6-0.2,2.9,0.4,6.7,2.6c1.5,1,3.1,1.7,4.7,2.3c0.8,0.2,1.5,0.3,2.1,0.3c10.7,0,20.6-1.8,25.3-6c2.2-2,5.3-3.1,11.4-4.5l4.9-1.1
			c2-0.5,3.7-0.9,5.3-1.3c4.2-1.1,8-2.4,11.7-4.1c6.4-2.9,12.6-9.3,18.4-18.2c3.6-5.6,6.9-11.8,9.9-18.6c2.6-6,4.6-12.9,5.8-20.3
			c1.9-11.6,2.2-24.4,0.4-38.2C198.8-81.7,198.2-86.7,197.7-91.8L197.7-91.8z M256.6-91.8h0.7c-0.3,0.7-0.5,1.2-0.6,1.5
			c-2,5-3.6,7.9-5.1,9.6c-0.8,0.9-1.7,1.4-2.6,1.4c-1.2,0-2.2,0.7-3.5,2.2l-1.4,1.7c-2.3,2.8-4.2,4.1-7.1,4.1
			c-2.9,0-5.2-1.3-8.3-4.1c-0.4-0.3-0.8-0.7-1.2-1.1l-1.1-1c-0.8-0.7-1.5-1.2-2.2-1.5c-0.6-0.3-1.1-0.4-1.7-0.4
			c-1.2,0-2.2-0.7-5.7-3.4l-0.8-0.6c-2.6-2-4.2-2.8-5.5-2.7c-1.5,0.2-2.3,2-2.3,6.2c0,20.8-2.7,50.4-6.3,57.4
			c-3.9,7.6-13.8,23.7-17.7,29.1c-6.8,9.4-16.2,20.2-22.9,25.1c-2.3,1.6-4.6,3-6.9,4c-1.7,0.8-3.4,1.4-5.8,2.2c-0.3,0.1-4.6,1.5-6,2
			c-2.5,0.9-4.8,1.7-7.3,2.8c-10.7,4.5-13,5-19.8,5c-1.3,0-1.5-0.1-7.3-2c-1.3-0.4-2.2-0.7-3.2-1c-4.2-1.2-7.2-1.4-9.1-0.2
			c-2.4,1.4-3.1,4.7-1.9,10.5c1,5.3,2.5,8.6,4.6,10.7c1.7,1.7,3.5,2.6,7.2,3.7c4.9,1.5,5.7,1.8,8,2.9c3.4,1.6,6.6,4.1,9.7,7.4
			c4.3,4.6,7.6,11.5,10.4,20.9c1.4,4.7,4.9,19.3,5.5,21.2c1.8,5.9,3.2,6.6,5.6,2c2.6-4.9,5.4-8.4,11-14.1c0.2-0.3,1.1-1.1,1.1-1.1
			c4.1-4.2,6.2-6.5,8.2-9.5c2.6-3.9,4.5-8.1,5.6-13.1c4.4-20.2,10.8-33.3,16.8-33.3l2.9,0c5.5,0.1,9,0,12.9-0.3
			c7.1-0.6,12.3-2.1,15.2-4.7c3-2.7,7-5.5,12.5-9c1.8-1.1,3.3-2.1,6.6-4.1c4-2.5,5.7-3.5,7.9-4.9c2-1.3,3.9-2.5,5.9-3.7
			c1.9-1.2,3.1-2,4.2-2.8c1.2-0.8,2.3-1.8,3.5-2.9c1-1,1.9-2.1,3-3.5c1.8-2.3,3.2-3.1,6.2-4.1l0.6-0.2c3-1,4.7-2.3,6.6-5.6
			c4.1-7,4.4-23.2,2-44.5c-0.9-7.7-1.1-19.3-0.8-35.5c0.1-6.2,0.2-12.4,0.4-18.6h0.5l-0.1,3.1c-0.2,6.4-0.3,11-0.4,15.6
			c-0.3,16.1-0.1,27.7,0.8,35.2c2.5,21.7,2.1,38.2-2.2,45.5c-2,3.5-3.8,4.8-6.9,5.9l-0.6,0.2c-3,1-4.3,1.8-6,4c-1,1.3-2,2.5-3.1,3.6
			c-1.1,1.1-2.3,2.1-3.5,3c-1.1,0.8-2.3,1.6-4.2,2.8c-2,1.2-3.9,2.5-5.9,3.7c-2.1,1.4-3.9,2.5-7.9,4.9c-3.3,2-4.8,3-6.6,4.1
			c-5.6,3.5-9.5,6.3-12.5,9c-3,2.7-8.3,4.1-15.4,4.8c-3.9,0.3-7.5,0.4-12.9,0.3l-2.8,0c-5.8,0-12,12.8-16.3,32.7
			c-1.1,5.2-3,9.5-5.7,13.5c-2.1,3.1-4.1,5.4-8.3,9.6l-1.1,1.1c-5.5,5.7-8.3,9-10.8,13.9c-2.7,5.1-4.5,4.2-6.5-2.2
			c-0.6-1.9-4.1-16.5-5.5-21.2c-2.8-9.2-5.9-16-10.2-20.5c-3-3.2-6.2-5.7-9.5-7.3c-2.3-1.2-3.1-1.4-8-2.9c-3.7-1.1-5.6-2-7.3-3.8
			c-2.2-2.3-3.7-5.8-4.8-11.3C92.5,49,93.4,45.2,96,43.6c2.1-1.2,5.1-1.1,9.4,0.2c1,0.3,1.9,0.6,3.2,1c5.7,1.9,5.9,2,7.2,2
			c6.7,0,9-0.5,19.6-5c2.4-1,4.7-1.9,7.3-2.8c1.4-0.5,5.7-1.9,6-2c2.4-0.8,4.1-1.5,5.8-2.2c2.4-1.1,4.5-2.3,6.8-4
			c6.7-4.8,16-15.6,22.7-24.9c3.9-5.3,13.7-21.4,17.6-28.9c3.4-6.7,6.1-36.2,6.1-56.7c0-4.6,1-6.9,2.8-7.2c1.4-0.2,3,0.7,5.7,2.7
			l0.8,0.6c3.4,2.6,4.4,3.3,5.5,3.3c0.6,0,1.2,0.2,1.8,0.5c0.7,0.3,1.4,0.8,2.3,1.5c0.6,0.5,1.2,1,1.7,1.5l0.6,0.5
			c3.1,2.7,5.3,4,8.1,4c2.8,0,4.6-1.2,6.8-3.9c0.1-0.1,1.1-1.4,1.4-1.7c1.4-1.6,2.4-2.4,3.8-2.4c0.8,0,1.5-0.4,2.3-1.3
			c1.4-1.6,2.9-4.5,4.9-9.3L256.6-91.8L256.6-91.8z M162.2,508.4h-1.1c0.3-3,0.5-6.2,0.7-9.7c0.2-4.1,0.4-8.3,0.5-12.2
			c0-1.4,0.1-2.6-0.2-7.3c-0.2-1.9-0.5-4.1-0.7-6.5c-1-11.3-1.4-22.9-0.6-33.8c0.4-6.2,1.3-12.3,2.7-18c1.7-6.7,3.9-12.8,6.5-18.2
			c1.8-3.6,2.9-5.5,6.1-10.8c2.3-3.8,3.3-5.6,3.9-7.5c0.3-1.1,0.5-2.1,0.5-3.1c0-1.8,0-1.7-0.4-9.2c-0.2-3.7-0.3-6.3-0.4-9
			c-0.3-12.1,0.8-19.6,4.2-21.8c8.2-5.3,13.4-12.1,17.3-25.5c4.9-16.9,13.3-31.5,18.6-31.5c6.4,0,10.4-2,15.2-8.8
			c3.5-4.9,4.9-6.6,6.5-7.5c1.2-0.6,2-0.7,4.7-0.7c1,0,1.8-0.8,2.9-2.6c0.6-1,2.6-5.1,2.9-5.6c3.1-5.9,6.2-8.8,10.8-8.8
			c1.3,0,2.4,0,3.8,0.1c3.9,0.2,4.6,0.2,5.8-0.7c1.6-1.1,2.9-3,7.6-11.2c4.1-7.1,5.6-8.9,11.9-16.5c0.7-0.9,1.3-1.6,1.9-2.4
			c1.7-2.2,3.4-4.7,4.9-7.5c2.1-3.9,4.2-7.9,6-11.9v3c-1.7,3.6-3.5,7-5.3,10.4c-1.6,3-3.2,5.4-5,7.7c-0.6,0.8-1.2,1.5-1.9,2.4
			c-6.2,7.5-7.6,9.3-11.7,16.3c-4.9,8.4-6.2,10.3-8,11.6c-1.4,1-2.2,1.1-6.2,0.8c-1.4-0.1-2.5-0.1-3.8-0.1c-4.3,0-7.1,2.7-10.1,8.2
			c-0.2,0.4-2.3,4.6-2.9,5.7c-1.2,2.1-2.3,3.1-3.6,3.1c-2.6,0-3.4,0.1-4.4,0.7c-1.4,0.8-2.7,2.4-6.1,7.2c-5.1,7.1-9.3,9.2-15.9,9.2
			c-4.8,0-12.9,14.2-17.7,30.5c-4.1,13.9-9.5,21-17.9,26.5c-2.8,1.8-3.7,8.5-3.5,19.8c0.1,2.6,0.2,5.2,0.4,8.8
			c0.4,7.6,0.4,7.6,0.4,9.4c0,1.4-0.2,2.7-0.6,4.1c-0.7,2.2-1.7,4.1-4.1,8c-3.2,5.2-4.3,7.1-6,10.6c-2.6,5.2-4.7,11.2-6.3,17.7
			c-1.3,5.5-2.2,11.4-2.6,17.4c-0.8,10.7-0.4,22.1,0.6,33.2c0.2,2.4,0.5,4.5,0.7,6.4c0.1,0.7,0.2,1.3,0.3,4.1
			c-0.1,5.4-0.3,10.8-0.6,16.1C162.7,502.3,162.5,505.5,162.2,508.4L162.2,508.4z M155.3,508.4h-0.5l0.1-0.3
			c1.6-7.2,2.2-11.8,2.2-18.7c0-3.6,0-4.9-0.4-15.7c-0.4-12-0.5-19.6-0.3-28.3c0.3-11.5,1.2-22.1,3-32.2c0.7-3.8,1.5-7.5,2.4-11.1
			c1.8-7.1,3.5-12.4,5.4-16.6c0.7-1.6,1.5-3.1,2.3-4.6c0.2-0.4,1.6-2.8,1.9-3.5c3-5.6,3.9-11.5,3.9-29.2c0-18.8,1.5-23.8,8.2-28.2
			c0.6-0.4,1-0.7,1.4-1c1.1-0.8,2.1-1.7,3.2-2.7c2.6-2.6,5-6.2,7.5-11.4c13.2-27.6,19.3-35.2,29.2-35.2c4.3,0,7.5-2,11.4-6.3
			c0.9-1,7.2-8.8,9.4-11.3c1.5-1.6,2.9-3,4.5-4.4c4.1-3.6,7.2-4.5,13.8-4.8c3.9-0.2,5.5-0.5,7.4-1.6c2.4-1.4,4.2-4,5.7-8.4
			c1.1-3.4,3.6-7.1,7.6-12.1c0.8-1,1.7-2.1,2.9-3.5c4.9-5.9,6-7.1,7.7-9.6c2.8-4,4.8-8.4,7.1-14.8c1-2.9,2-5.8,2.9-8.8v1.9
			c-1,3.2-1.8,5.4-2.5,7.4c-2.3,6.5-4.4,10.9-7.2,15c-1.7,2.5-2.8,3.8-7.7,9.6c-1,1.1-2,2.3-2.9,3.5c-4,4.9-6.4,8.5-7.4,11.8
			c-1.6,4.6-3.5,7.4-5.9,8.9c-1.9,1.1-3.6,1.4-7.5,1.6c-6.5,0.3-9.6,1.2-13.6,4.7c-1.5,1.3-3,2.8-4.4,4.4
			c-2.2,2.4-8.5,10.2-9.4,11.3c-3.9,4.4-7.3,6.4-11.7,6.4c-9.8,0-15.7,7.4-28.8,34.9c-2.5,5.3-5,9-7.6,11.6c-1,1.1-2.1,1.9-3.2,2.8
			c-0.4,0.3-0.9,0.6-2.8,1.9c-2.6,1.8-3.9,3.3-4.8,6.4c-1.2,3.8-1.7,9.9-1.7,20.1c0,17.9-1,24.1-4,29.9c-0.4,0.7-1.7,3.1-1.9,3.5
			c-0.8,1.4-1.5,2.9-2.2,4.5c-1.8,4.1-3.6,9.3-5.3,16.4c-0.9,3.6-1.7,7.2-2.3,11c-1.8,10-2.7,20.5-3,31.9
			c-0.2,8.6-0.1,16.2,0.3,28.2c0.4,10.8,0.4,12.1,0.4,15.7C157.5,495.7,157,500.2,155.3,508.4L155.3,508.4z M168.3,508.4h-0.5
			c0-4.7,0-9.4,0.1-15c0.1-6.4-0.2-11.8-1.3-24.4l-0.2-1.9c-1.1-12.6-1.4-19.4-1-26.5c0.5-9.3,2.5-16.7,6.2-22.7
			c11.4-18.2,15.5-30.2,15.5-44.6c0-2.6-0.2-4.8-0.5-8.2c-0.5-4.8-0.6-5.7-0.5-7.6c0.1-2.6,0.7-4.7,1.8-6.7c1.4-2.4,3.7-4.6,7.1-7
			c5-3.5,8-9.2,12.6-21.6l0.9-2.5c2.3-6.3,3.7-9.6,5.4-12.8c2.2-4.1,4.7-6.8,7.5-8.2c6.9-3.3,10.6-5.5,13.1-7.6
			c0.9-0.8,1.9-1.7,2.7-2.7c0.6-0.6,0.9-1,2.2-2.6c1.4-1.7,2.7-2.1,5.9-2.3c2.8-0.2,4.1-0.4,5.7-1.4c1.9-1.2,3.6-3.3,4.9-6.2
			c2.5-5.3,5.2-7.6,9.2-8.9c0.6-0.2,1-0.3,2-0.6c3.6-1,5.2-1.7,7-3.6c2.3-2.5,3.5-4.4,12.2-19.7l1.6-2.9c5-8.7,8.4-13.8,11.1-16.5
			c2.2-2.1,3.9-4.7,5.8-8.6v1.5c-1.8,3.6-3.5,6-5.6,8.1c-2.7,2.6-6,7.7-11,16.3l-1.6,2.9c-8.7,15.4-9.9,17.3-12.3,19.8
			c-1.9,2-3.5,2.8-7.2,3.7c-1,0.3-1.4,0.4-2,0.6c-3.9,1.3-6.5,3.5-8.9,8.6c-1.4,3-3.2,5.3-5.2,6.5c-1.7,1-3,1.3-5.8,1.5
			c-3.1,0.2-4.3,0.6-5.6,2.1c-0.7,0.9-1.5,1.8-2.2,2.6c-0.9,1-1.8,1.9-2.8,2.8c-2.6,2.2-6.3,4.4-13.2,7.7c-5,2.4-7.9,7.7-12.6,20.6
			l-0.9,2.5c-4.6,12.5-7.7,18.3-12.8,21.9c-3.4,2.4-5.6,4.6-6.9,6.8c-1.1,1.9-1.6,3.7-1.7,6c-0.1,1.8,0,2.6,0.5,7.3
			c0.4,3.4,0.5,5.7,0.5,8.4c0,14.8-4.1,27-15.6,45.4c-3.6,5.8-5.5,13-6,22c-0.4,7-0.1,13.7,1,26.2l0.2,1.9
			c1.1,12.7,1.5,18.1,1.3,24.6C168.3,499,168.3,503.6,168.3,508.4L168.3,508.4z M43.7,508.4h-1.1c0.4-3.8,0.6-8.8,0.8-16
			c0.1-3.1,0.1-4.1,0.2-5.6c0.7-17.5,2.1-27.1,6-33.2c2.4-3.8,3.7-8.9,4.5-16c0.3-2.5,0.4-3.9,0.7-9.2c0.3-5.5,0.6-8.1,1.2-10.4
			c0.8-3.1,2-4.7,3.8-4.7c7.4,0,19.9,9.1,27.8,20.2c4.5,6.4,11,13.3,16.5,17.1c6.8,4.7,11.3,4.4,12.8-1.7c0.9-3.6,1-4.1,1.4-5.8
			c1.5-6.7,2.4-12.2,2.7-17.5c0.1-2.2,0.1-4.2,0-6.2c-0.2-2.8-0.7-4.6-2.1-7.4l-0.7-1.4c-0.4-0.9-0.9-1.8-1.3-2.8
			c-0.5-1.3-0.9-2.7-1.3-4.1l-0.6-2.1c-0.8-3.1-1.4-4.6-2.1-5.6c-2.7-3.5-7.7-5.5-14.8-6.8c-1.6-0.3-3.1-0.5-4.7-0.7l-1.1-0.2
			c-5-0.7-7.8-1.6-9.9-3.2c-7.3-5.9-17.9-26.4-17.9-36.9c0-5.3,0.9-9.5,2.8-14.1c1-2.4,5.8-11.7,6.6-13.5c2.3-5,5.3-9.5,9.2-14.7
			c1.5-1.9,7.7-9.6,9.1-11.5c1.2-1.6,2.3-3.4,3.3-5.4c0.8-1.5,3.6-7.1,3.7-7.3c3.7-7.3,6.6-11.6,10.2-14.4c1.7-1.3,4.2-2.8,9-5.4
			c2-1.1,4.1-2.2,6.1-3.3c2.2-1.2,4.4-2.4,6.6-3.7c10.6-6.2,17.6-12.1,21.1-18.4c4.5-8.2,6.1-13.8,8.2-26c1-6.2,1.6-9,2.6-12.7
			c4.9-17.7,14.9-39.4,22.5-45.5c7.3-5.8,10-11.7,10-18.1c0-2.9,1.4-8.4,3.5-13.7c2.5-6.2,5.5-11.4,8.7-14.2
			c6.5-5.8,17.4-10.1,24.6-10.1c2.8,0,5.1-1.5,8.5-4.9c4.8-4.7,5.2-5.1,7-5.1c5.4,0,16.6-2.6,23.7-6l2-1l1.8-0.9
			c1.3-0.7,2.2-1.1,3.1-1.4c2-0.9,3.5-1.2,5-1.2c1.4,0.1,2.8,0.5,4.5,1.5c2.4,1.4,7.1-0.9,11.9-5.7c1.8-1.8,3.5-3.9,5.1-6.2v2.4
			c-5.7,8.1-13.4,13.7-17.3,11.4c-1.4-0.8-2.8-1.3-4.2-1.4c-1.4-0.1-2.8,0.3-4.7,1.1c-1.6,0.7-3.2,1.5-4.8,2.3l-2,1
			c-7.2,3.5-18.5,6-24,6c-1.6,0-2,0.4-6.6,4.9c-3.6,3.5-6,5.1-9,5.1c-7.1,0-17.8,4.3-24.1,9.9c-3,2.7-5.9,7.6-8.3,13.6
			c-2,5-3.3,10.2-3.3,12.5c0,7.3-3,13.8-10.7,19.9c-7.4,5.9-17.2,27.2-22,44.6c-1,3.6-1.5,6.3-2.6,12.4c-2.1,12.5-3.7,18.4-8.4,26.9
			c-3.7,6.6-10.8,12.6-21.5,18.9c-2.2,1.3-4.4,2.5-6.6,3.7c-2,1.1-4.1,2.2-6.1,3.3c-4.8,2.6-7.2,4-8.9,5.3
			c-3.5,2.7-6.2,6.8-9.9,13.9c-0.1,0.1-2.9,5.8-3.7,7.3c-1.1,2.1-2.2,4-3.4,5.7c-1.4,1.9-7.6,9.6-9.1,11.5c-3.8,5-6.7,9.5-9,14.4
			c-0.9,1.9-5.6,11.1-6.6,13.5c-1.8,4.3-2.6,8-2.6,12.9c0,9.5,10.4,29.5,17.3,35.1c1.9,1.5,4.7,2.3,9.6,3.1c0.7,0.1,1.5,0.2,2.2,0.3
			c1.7,0.2,2.6,0.4,3.6,0.6c7.3,1.4,12.3,3.4,15.3,7.2c0.9,1.2,1.6,2.9,2.5,6.3l0.6,2.1c0.4,1.3,0.8,2.6,1.2,3.8
			c0.3,0.8,0.7,1.6,1.2,2.6c0.1,0.2,0.6,1.2,0.7,1.4c1.5,3.1,2.2,5.2,2.4,8.5c0.1,2.1,0.1,4.3,0,6.6c-0.3,5.6-1.2,11.3-2.8,18.1
			c-0.4,1.7-0.5,2.1-1.4,5.8c-1.8,7.5-6.9,7.8-14.1,2.8c-5.5-3.9-12.1-10.9-16.7-17.4c-7.7-10.9-20-19.8-27.2-19.8
			c-2.6,0-3.3,3-4,13.3c-0.2,3.1-0.4,6.2-0.7,9.3c-0.8,7.5-2.2,13-4.9,17.2c-3.6,5.6-4.9,14.8-5.6,31.8c-0.1,1.5-0.1,2.5-0.2,5.6
			C44.3,499.5,44.1,504.5,43.7,508.4L43.7,508.4z M47.9,508.4h-0.5c0.2-1.4,0.3-2.9,0.5-4.6l0.5-5.6c1.3-13.3,2.2-19.9,3.5-24.1
			c0.9-2.8,1.9-5.5,4.2-11c4.3-10.4,5.6-14.6,5.6-18.7l0-1.7c0-1.8,0-2.7,0-3.8c0.1-5.1,0.8-8.2,2.4-9.4c2-1.5,5.4,0.4,10.4,6.4
			c5,5.9,9.1,10.7,13.4,15.7c0.7,0.8,7.4,8.4,9.2,10.5c1.1,1.3,2.2,2.6,3.3,3.9c7.2,8.5,20.2,5.1,24-7.8c1.9-6.3,2.4-8.5,4-17.3
			c0.2-1,0.4-2.1,0.6-3.1c0.6-2.7,1.3-5.2,2.1-7.6c4.8-14,7.7-26.1,7.7-36.7c0-3.7,0.4-6.6,1.7-14.9c0.3-1.6,0.4-2.7,0.6-3.7
			c1.9-12.2,1.6-19.1-2.2-24c-1.5-2-3.3-3.3-5.2-3.8c-3.7-0.9-7.5,1.2-12.4,5.9c-0.8,0.8-3.4,3.4-3.9,3.9c-0.7,0.7-1.4,1.5-2.1,2.3
			l-2.3,2.7c-6,6.9-10.6,9.2-17,6.1c-1.7-0.8-3.2-1.4-6.8-2.6c-6.9-2.4-9.7-3.8-12.1-6.5c-3.2-3.7-3.9-9-1.5-16.7
			c2.1-6.7,4.6-12.8,7.5-18.3c1.4-2.7,2.8-5.2,4.3-7.7c0,0,3.2-5.3,4.1-6.8c1.2-2,2.3-4.1,3.4-6.3c4-8.5,6.6-13.4,10.4-18.6
			c5.2-7.1,11.1-12.4,18.2-15.6c19.2-8.6,26.4-12.7,30.5-17.9c4.5-5.7,11-24.8,19.1-54.8c2.7-10.1,6.4-18.4,11-25.7
			c2.7-4.2,5-7.3,9.1-12.2c3.8-4.6,5-6.1,5.9-8.2c0.6-1.5,1.1-3.1,1.5-4.9c0.3-1.3,1.5-6.5,1.6-6.8c0.7-3,1.3-5.4,2-7.7
			c3.4-11,8.3-18,16.3-20.8c6.6-2.3,10.3-2.7,15.4-2.3c1.7,0.1,2.1,0.2,2.9,0.1c2.7-0.1,5-1,8.6-3.8c10.8-8.3,20.1-12,30.7-12
			c1.6,0,3.1,0.2,5.4,0.5l1.1,0.2c6.5,1,9.4,1,13.1-0.6c2.6-1.1,5-2.9,7.3-5.5v1.2c-2.3,2.4-4.7,4.2-7.2,5.3
			c-3.8,1.6-6.8,1.6-13.3,0.7l-1.1-0.2c-2.3-0.3-3.8-0.5-5.4-0.5c-10.5,0-19.8,3.7-30.5,12c-3.6,2.8-6.1,3.8-8.8,3.9
			c-0.8,0-1.2,0-2.9-0.1c-5.1-0.4-8.7,0-15.3,2.3c-7.8,2.7-12.6,9.6-15.9,20.3c-0.8,2.5-1.4,5-2,7.6c-0.1,0.3-1.2,5.5-1.6,6.8
			c-0.4,1.8-1,3.5-1.6,5.1c-1,2.1-2.1,3.7-6,8.4c-4.1,5-6.4,8-9,12.2c-4.5,7.2-8.2,15.4-10.8,25.4c-8.1,30.2-14.7,49.3-19.3,55.2
			c-4.1,5.3-11.4,9.4-30.7,18.1c-7.1,3.2-12.9,8.4-18,15.4c-3.7,5.2-6.4,10-10.3,18.4c-1.1,2.2-2.2,4.4-3.4,6.4
			c-0.9,1.5-4.1,6.8-4.1,6.8c-1.7,2.8-3,5.2-4.3,7.6c-2.8,5.4-5.3,11.5-7.4,18.1c-2.2,7.2-1.7,11.9,1.3,15.3c2.3,2.6,5.1,4,12,6.4
			c2.2,0.7,4.5,1.6,6.7,2.6c6.3,3,10.7,0.8,16.6-6l2.3-2.7c0.9-1,1.5-1.7,2.2-2.4c0.5-0.5,3.1-3.1,3.9-3.9c5-4.8,8.8-6.9,12.7-6
			c1.9,0.5,3.8,1.8,5.4,3.9c4.1,5.2,4.4,12.5,2.4,25.1c-0.2,1.1-0.3,2.1-0.6,3.7c-1.3,8.1-1.7,11-1.7,14.6c0,10.9-2.9,23.1-7.8,37.3
			c-0.8,2.3-1.5,4.8-2.1,7.5c-0.2,0.9-0.4,1.8-0.6,3c-1.7,8.9-2.2,11.1-4.1,17.5c-4,13.4-17.3,17-24.7,8.2c-1.1-1.3-2.2-2.6-3.3-3.9
			c-1.8-2-8.5-9.7-9.2-10.5c-4.3-5-8.5-9.8-13.4-15.7c-4.9-5.9-8.1-7.7-10-6.4c-1.4,1-2,3.8-2.1,8.5c0,1.2,0,2.5,0,3.7l0,1.7
			c0,4.5-1.4,8.7-6,19.9c-2,5-3,7.6-3.9,10.4c-1.2,4-2.1,10.6-3.4,23.7l-0.5,5.6L47.9,508.4L47.9,508.4z M53.3,508.4h-0.5
			c0-0.3,0-0.7,0-1c0-12.4,4.4-33.6,9.9-43.4c0.7-1.3,1.3-2.7,1.9-4.2c0.6-1.6,1.1-3.2,1.5-4.9c0.2-0.7,0.9-3.7,1.1-4.4
			c1.7-6.3,3.5-6.5,8.8,0.4c0.7,0.9,3.1,4.2,3.3,4.4c1.4,1.8,2.4,3.2,3.5,4.6c2.6,3.4,4.9,6.2,7,8.7c7.4,8.7,13.2,13.3,17.7,13.3
			c8.7,0,17-6,20.5-14.8c0.8-2,1.7-5.2,2.6-9.6c0.4-1.9,0.8-4.1,1.4-6.8l1.4-7.3c2.4-12.4,4-19.1,6-23.3c4.1-8.8,7.7-36,7.7-52.7
			c0-1.9,0.1-3.1,0.5-8.3c0.2-2.2,0.3-3.6,0.4-5.1c0.3-5.5,0.1-9.5-0.9-12.4c-2.4-7.1-10.2-9.2-19.9-4.8c-3.4,1.5-6.7,3.6-9.8,6.3
			c-2.7,2.4-8.9,9.7-8.6,9.4c-3.5,3.6-6.7,4.2-12.9,1.3c-15.3-7.1-15.8-8.6-7.9-26.8c9-20.9,24.4-46.2,29.2-46.2
			c5.1,0,27.9-12,34.1-18c4.9-4.7,12.6-21.2,19.1-37.9c0.4-0.9,7-21.6,10-29.6c4.8-13.1,9.4-22.6,14-27.5c3.8-4.2,6.8-10.3,9.7-18.7
			c1-2.9,5.5-17.7,6.6-20.4c0.8-1.9,1.6-3.2,2.3-3.9c7.3-6.3,12.6-9,20.3-9h15c2.1,0,3.8-0.4,11.9-2.5l2.2-0.6
			c5.1-1.3,8.6-1.9,11.3-1.9c0.9,0,1.5,0,3.1,0c9.6,0.2,14.8-0.5,23.3-4c1.6-0.7,3.2-1.8,4.7-3.3v1.1c-1.5,1.4-3,2.5-4.6,3.2
			c-8.5,3.6-13.7,4.2-23.4,4.1c-1.6,0-2.3,0-3.1,0c-2.7,0-6.1,0.6-11.2,1.9l-2.2,0.6c-8.1,2.1-9.8,2.5-12,2.5h-15
			c-7.7,0-12.9,2.8-20.1,9c-0.7,0.6-1.4,1.8-2.1,3.6c-1.1,2.7-5.6,17.4-6.6,20.3c-3,8.6-6.1,14.8-9.9,19c-4.4,4.9-9,14.2-13.8,27.2
			c-2.9,8-9.6,28.6-10,29.6c-6.5,16.8-14.3,33.3-19.3,38.2c-6.3,6-29.1,18.1-34.3,18.1c-4.6,0-19.9,25.2-28.8,45.8
			c-7.6,17.5-7.4,18.2,7.6,25.2c6,2.8,9.1,2.3,12.5-1.2c-0.3,0.4,5.9-7,8.6-9.4c2.8-2.5,6-4.6,9.9-6.4c9.9-4.5,18-2.4,20.5,5.2
			c1.1,3.2,1.3,7.3,1,13c-0.1,1.7-0.2,3.4-0.4,5.1c-0.4,5.1-0.5,6.3-0.5,8.1c0,16.9-3.6,44.3-7.8,53.3c-1.9,4.1-3.5,10.7-5.9,23
			c-0.2,0.9-1.1,5.9-1.4,7.3c-0.5,2.8-1,4.9-1.4,6.8c-1,4.5-1.8,7.7-2.7,9.9c-3.7,9.1-12.1,15.2-20.9,15.2
			c-4.6,0-10.4-4.7-17.9-13.4c-2.2-2.5-4.4-5.3-7-8.7c-1.2-1.5-2.3-3-3.5-4.6l-3.3-4.4c-5-6.6-6.5-6.4-8-0.8
			c-0.2,0.7-0.9,3.6-1.1,4.4c-0.4,1.8-1,3.4-1.5,5c-0.6,1.6-1.2,3-2,4.3c-5.4,9.6-9.8,30.5-9.8,42.6L53.3,508.4L53.3,508.4z
			 M38,508.4h-0.6c0.6-2.5,0.9-5.2,0.9-8c0-20,2.5-42.1,6.3-49.4c2.7-5.2,4-8.4,5.1-12.7c1.4-5.4,2-12,2-20.9
			c0-6.8,0.6-11.6,1.7-15.1c0.9-2.7,1.9-4.2,4.6-7.5c0.7-0.8,1.4-1.8,2-2.8c2.4-4,3.4-6.2,4-9.4c0.7-4,0.5-9-1-16
			c-0.6-2.8-1.3-5.5-2.1-8.1l-0.5-1.7c-0.5-1.6-0.9-3.3-1.4-5c-2.7-10.7-2-18.9,4-29.8c4.3-7.9,9-15.1,13.9-21.6
			c2.1-2.7,8.7-10.8,10-12.5c1-1.4,2.2-3.3,4-6.3c0,0,3.7-6.4,4.9-8.3c2.6-4.3,4.7-7.5,6.8-10.2c2.4-3.2,4.6-5.3,6.7-6.3
			c6.6-3.4,8.1-4.2,11.3-6c6.5-3.6,11.4-6.9,14.6-10c1.2-1.1,2.5-2.1,3.9-2.8c4.5-2.7,6.2-4.1,8.8-8.1c3.5-5.5,6.8-14.3,10-27.9
			c8.3-34.8,9.9-39.4,16.7-49.2c1.6-2.4,3.3-4.1,5.9-6.4l1.2-1c6.2-5.4,8.7-8.9,10.9-17.4c1-3.8,1.3-6.3,1.7-12.3
			c0.4-5.2,0.8-7.6,1.8-10.3c1.3-3.4,3.6-6.3,7.4-9c1.7-1.3,3.8-2.5,6.2-3.7c8.5-4.3,13.1-5.4,20.5-5.8c3.6-0.2,4.9-0.6,6.6-2
			c0.6-0.5,1.2-1.2,1.9-2.1c1.9-2.7,4.2-4.5,6.9-5.7c3-1.3,5.5-1.5,9.7-1.5l1.2,0c1.5,0,3.5-1,10.2-4.7c5.6-3.1,8.3-4.3,10-4.3
			c0.4,0,1,0.1,1.8,0.4l2.6,0.9c5.1,1.7,9,1.9,13-0.2c4.1-2.2,7.7-6.8,10.5-14.2v1.6c-2.8,7-6.3,11.4-10.4,13.6
			c-4.1,2.2-8.1,1.9-13.3,0.2l-2.6-0.9c-0.8-0.3-1.4-0.4-1.8-0.4c-1.7,0-4.3,1.2-10.2,4.5c-6.4,3.5-8.4,4.5-10,4.5l-1.2,0
			c-4.1-0.1-6.7,0.2-9.6,1.4c-2.6,1.1-4.8,2.9-6.7,5.5c-0.6,0.9-1.3,1.6-1.9,2.2c-1.7,1.5-3.1,1.9-6.8,2.1c-7.4,0.4-12,1.5-20.4,5.8
			c-2.1,1-4.2,2.3-6.2,3.7c-3.7,2.7-6,5.5-7.2,8.7c-1,2.5-1.3,4.8-1.7,9.8c-0.5,6.1-0.8,8.7-1.8,12.6c-1.2,4.6-2.9,8.5-5,11.5
			c-1.6,2.3-3.1,3.7-6.2,6.4l-1.2,1c-2.6,2.3-4.2,4-5.8,6.3c-6.7,9.7-8.3,14.2-16.5,48.8c-3.3,13.8-6.6,22.7-10.2,28.3
			c-2.6,4.1-4.4,5.6-9,8.3c-1.3,0.7-2.6,1.6-3.8,2.7c-3.2,3.1-8.1,6.4-14.7,10.1c-3.8,2.1-7.5,4.1-11.3,6c-2,1-4.1,3.1-6.5,6.2
			c-2.3,3.1-4.6,6.5-6.7,10.1c-1.2,1.9-4.9,8.3-4.9,8.3c-1.3,2.3-2.7,4.4-4.1,6.4c-1.3,1.7-7.9,9.8-10,12.5
			c-4.9,6.4-9.5,13.6-13.8,21.5c-5.8,10.6-6.4,18.3-3.9,28.6c0.4,1.7,0.9,3.3,1.4,5l0.5,1.7c0.8,2.6,1.5,5.4,2.1,8.2
			c1.5,7.2,1.8,12.5,1,16.7c-0.6,3.4-1.7,5.8-4.2,9.8c-0.6,1-1.2,1.8-2.7,3.7c-2,2.4-2.9,3.9-3.8,6.4c-1.1,3.3-1.7,7.9-1.7,14.5
			c0,9.1-0.7,15.8-2.1,21.3c-1.1,4.5-2.5,7.8-5.2,13c-3.7,7.1-6.1,28.9-6.1,48.7C38.8,503.2,38.5,505.8,38,508.4L38,508.4z
			 M184.4,508.4h-0.5l-0.6-5.8c-1.6-16.3-2.1-26.2-1.4-37.3c0.4-5.8,0.4-9.7,0.3-15.3c-0.1-4.5-0.1-5.7,0.1-7.6
			c0.4-4.3,1.8-8.5,5.4-16.3c4.7-10.2,6.4-15.4,10.3-30.2c0.7-2.6,1.2-4.5,1.8-6.3c0.5-1.6,0.9-3.1,1.4-4.5
			c1.6-4.7,3.6-8.4,8.7-16.8c5.8-9.6,8-13.9,9.4-19.1c0.4-1.4,0.7-2.8,1-4.4c0.3-1.3,0.5-2.7,0.8-4.1c1.9-9.9,4.2-13.9,11.9-17.8
			c2.6-1.3,10.7-5.1,11.1-5.3c8.4-4.1,13.1-7.4,17.4-12.6c3-3.8,3-3.8,14.3-16.5l1.3-1.5c5.3-6,8.9-10.2,11.8-14
			c1.6-2,3.1-4.1,4.6-6.3c1.1-1.7,2.2-3.4,3.3-5.1c2.6-4,5.4-7.4,8.4-10.3v1.1c-2.9,2.7-5.5,6.1-8,9.9c0.1-0.1-2.5,3.8-3.3,5.1
			c-1.5,2.2-3,4.3-4.6,6.4c-2.9,3.8-6.5,8-11.8,14l-1.3,1.5c-11.3,12.8-11.3,12.7-14.3,16.5c-4.3,5.3-9.1,8.6-17.5,12.7
			c-0.4,0.2-8.5,4-11.1,5.3c-4.2,2.1-6.8,4.5-8.5,7.5c-1.4,2.4-2.1,4.9-3,9.7l-0.8,4.1c-0.3,1.5-0.6,3-1,4.5
			c-1.4,5.5-3.6,9.8-9.5,19.5c-5,8.3-7,12-8.6,16.6c-0.5,1.5-1,2.9-1.4,4.5c-0.5,1.8-1,3.6-1.7,6.3c-3.9,14.8-5.6,20.1-10.3,30.4
			c-3.5,7.7-4.9,11.8-5.3,15.9c-0.2,1.9-0.2,3-0.1,7.4c0.1,5.7,0.1,9.6-0.3,15.5c-0.7,10.9-0.2,20.8,1.4,37L184.4,508.4L184.4,508.4
			z M144.7,508.4h-1.1l0.7-4.3c0.5-3.3,1-6.8,1.4-10.4c1.4-12.7,1.7-23.6,1.7-41.3c0-5.7-1-9.8-2.1-9.8c-1.5,0-3.6,5.6-5.7,17.1
			c-5.1,28.4-11.7,41.7-22.3,41.7c-11.6,0-15.2-1.4-25.1-10.1c-1.7-1.5-3.3-3.2-4.9-5c-1.5-1.8-6.6-8.6-7.7-9.7
			c-2.2-2.4-3.6-2.7-5-1c-0.3,0.4-0.7,0.9-1,1.6c-0.7,1.4-1.5,2.6-2.2,3.9c-0.5,0.8-1.1,1.6-1.6,2.4l-0.5,0.8
			c-4.3,6.6-5.9,11.4-5.9,21.2c0,1,0,2,0,3h-1c0-1,0-2,0-3c0-10.5,1.7-15.8,6.3-22.8c0.3-0.5,0.7-1.1,1-1.6c0.4-0.6,0.7-1.1,1.1-1.6
			c0.8-1.2,1.5-2.4,2.2-3.7c0.4-0.7,0.8-1.3,1.2-1.8c1.8-2.2,3.6-1.8,6.1,0.9c1.1,1.2,6.2,8,7.7,9.8c1.5,1.8,3.1,3.5,4.8,4.9
			c9.8,8.6,13.2,9.9,24.7,9.9c10,0,16.3-12.7,21.3-40.3c2.2-12.3,4.5-18.4,6.6-18.4c2,0,3.2,5.1,3.2,11.8c0,17.8-0.3,28.8-1.7,41.7
			c-0.4,3.7-0.9,7.2-1.4,10.6C145.1,506,144.9,507.2,144.7,508.4L144.7,508.4z M67.3,508.4l0.3-0.9c1.2-4.3,2.4-8.7,3.4-13.3
			c1.4-6.3,3-9.6,4.8-10.5c1.9-1,3.7,0.7,6.5,5.1c2.8,4.4,3.1,4.9,4,5.1c0.8,0.2,2.2,1.1,4.6,3c0.7,0.5,5.6,4.4,7.2,5.6
			c1.6,1.2,3,2.3,4.4,3.2c1.6,1.1,3.1,2,4.5,2.8h-1.8c-0.9-0.6-1.9-1.2-2.9-1.9c-1.5-1-2.9-2.1-4.4-3.2c-1.6-1.2-6.5-5-7.2-5.6
			c-2.3-1.8-3.7-2.7-4.5-2.9c-1-0.3-1.3-0.7-4.3-5.3c-2.7-4.2-4.3-5.8-6.1-4.9c-1.6,0.8-3.1,3.9-4.4,10c-1.1,4.7-2.2,9.3-3.5,13.8
			H67.3L67.3,508.4z M125.9,508.4c2.2-1.3,4.1-3.4,5.8-6.3c0.8-1.4,1.7-3.5,2.8-6.3c0.5-1.5,1.1-3.1,1.8-5c0.4-1.3,0.9-2.6,1.3-3.9
			l0.2-0.8l0.5-1.5c0.5-1.7,1.1-3.3,1.7-4.9c0.5-1.4,0.9-2.2,1.3-2.5c0.5-0.4,0.8,0.5,0.8,2l0,2.1c0,6.9,0,11.3-0.4,16.3
			c-0.2,3.6-0.6,7.1-1.2,10.6h-0.6c0.6-3.5,1.1-7,1.3-10.7c0.3-5,0.4-9.3,0.4-16.2l0-2.1c0-1,0-1.1-0.1-1.1c-0.2,0.1-0.5,0.9-1,2.1
			c-0.6,1.6-1.1,3.2-1.7,4.8l-0.5,1.5l-0.2,0.8c-0.4,1.3-0.9,2.6-1.3,3.9c-0.7,1.9-1.2,3.6-1.8,5.1c-1.1,2.9-2,5-2.9,6.5
			c-1.4,2.3-2.9,4.2-4.6,5.5H125.9L125.9,508.4z M30.6,508.4h-0.7c1.7-3.4,2.7-8.3,2.7-15c0-18.6,0-17.4,0.5-20.8
			c0.3-1.9,0.8-3.7,1.7-6.6c0.2-0.7,2.6-7.8,3.5-10.9c1.6-5,5.7-16.5,6.3-18.6c1.8-6.1,2.4-12.1,2.4-24.2c0-7.9,1.3-14.2,4.2-23.4
			l1.5-4.6c0.5-1.4,0.9-2.9,1.3-4.4c0.8-3.2,1.3-5.8,1.4-8.3c0.1-3.8-0.7-7.3-2.5-10.9c-2.7-5.1-4.5-5.4-5.8-1.9
			c-1.1,2.9-1.8,7.7-2.6,16.5c-0.1,1-0.4,4.6-0.4,4.6c-0.4,4.7-0.7,7.3-1.1,9.6c-0.7,4.4-1.9,7.6-4.3,12.3l-1.7,3.2
			c-3.3,6.4-5,11.5-5.9,19.5l-0.6,5.5c-0.5,4.1-0.8,7-1.2,9.9c-1.9,13.7-5,26-11.7,44.7c-4,11.1-5.7,18.9-5.7,23.7h-0.5
			c-0.1-5.2,1.7-13.1,5.8-24.3c6.7-18.7,9.7-30.8,11.6-44.4c0.4-2.9,0.8-5.8,1.2-9.9l0.6-5.5c0.9-8.2,2.7-13.5,6-20
			c0.3-0.6,1.5-2.8,1.7-3.2c2.4-4.5,3.5-7.6,4.2-11.8c0.5-3.1,0.8-6.3,1.1-9.5l0.4-4.6c0.8-8.9,1.6-13.8,2.7-16.9
			c1.6-4.2,3.7-3.8,6.6,1.7c2,3.8,2.8,7.6,2.7,11.7c-0.1,2.7-0.5,5.4-1.4,8.7c-0.4,1.5-0.8,3-1.3,4.5l-1.5,4.6
			c-2.9,9.1-4.1,15.3-4.1,22.9c0,12.3-0.7,18.4-2.5,24.7c-0.6,2.1-4.8,13.7-6.3,18.6c-1,3.1-3.3,10.2-3.5,10.9
			c-0.9,2.8-1.3,4.6-1.6,6.4c-0.5,3.3-0.5,2.1-0.5,20.5C33.1,499.9,32.2,504.8,30.6,508.4L30.6,508.4z M154.7-91.8h0.5
			c-0.2,0.9-0.4,1.8-0.6,2.8c-2,9.1-2.8,15.2-2.8,25.2c0,7.6-1.1,11.6-3.4,13.1c-1.8,1.1-3,1-9.1-0.4c-6-1.4-9.9-1.6-14.6-0.1
			c-3.2,2.5-13.4,7-16.7,7c-5.8,0-19.1-2.9-28.1-7c-1.5-0.7-3-0.9-4.5-0.5c-1.5,0.4-3,1.4-4.3,3c-2.1,2.3-3.7,5-7.2,12
			c-3.3,6.4-4.9,9.2-7.2,11.5c-3.7,3.8-5.8,7.7-6.9,12.3c-0.9,3.9-1.2,7.8-1.2,15.3c0,4.4-1.4,6.7-4.9,9.7c0.1,0-1.5,1.3-2,1.7
			c-4.6,4.1-6.6,8.3-6.6,16.6c0,12.5-2.5,19.2-9,28l-2.4,3.1c-1,1.3-1.7,2.3-2.4,3.3c-0.5,0.7-0.9,1.3-1.4,2
			c-3.7,5.6-5.7,14.5-8.1,33.3c-0.3,2.6-1.7,14-2.1,17.1c-0.8,6.5-1.7,12.9-2.7,19.3c-0.7,4.5-2.3,15.1-2.6,16.5
			c-0.5,3.4-0.9,4.9-1.3,6.3c-0.4,1.4-3.6,9.1-6.6,18.3l-2.8,8.7v-1.9l2.4-7.4c2-6.2,4.2-12.3,6.5-18.2c-0.2,0.5,0.7-2.8,1.2-6.1
			c0.2-1.4,1.9-12,2.6-16.5c0.9-6,1.8-12.1,2.7-19.3c0.4-3.1,1.8-14.6,2.1-17.1c2.4-19,4.4-28,8.3-33.8c0.4-0.7,0.9-1.3,1.4-2
			c0.7-1,1.5-2,2.4-3.3l2.4-3.1c6.3-8.6,8.8-15,8.8-27.1c0-8.7,2.2-13.3,6.9-17.5c0.5-0.4,2.1-1.8,2-1.7c3.3-2.9,4.6-5,4.6-8.8
			c0-7.6,0.3-11.7,1.3-15.7c1.2-4.8,3.4-8.9,7.2-12.7c2.2-2.2,3.8-5,7.3-11.9c3.3-6.4,4.9-9.1,7-11.5c1.4-1.6,2.9-2.6,4.4-3.1
			c1.6-0.4,3.2-0.3,4.7,0.5c9,4.1,22.2,7,27.9,7c3.2,0,13.3-4.5,16.5-7c4.7-1.5,8.7-1.3,14.8,0.1c6,1.4,7.2,1.5,8.9,0.5
			c2.1-1.3,3.1-4.9,3.1-12.1C151.3-73.9,152.1-80.1,154.7-91.8L154.7-91.8z M167.7-91.8h0.5c0,5.6,0.1,11.5,0.3,19.4
			c0.2,9.7,0.3,14.6,0.3,21.6c0,9.8-2.4,17.5-6.8,23.2c-3.4,4.4-7.7,7.5-12.6,9.3c-1.9,0.5-4.9,0.6-11.8,0.2
			c-3.5-0.2-4.8-0.2-6.4-0.2c-1.4,0-2.6,0.4-4,1.4c-0.5,0.3-2.4,1.7-2.9,2.1c-3.4,2.4-7,3.5-12.8,3.5c-4.2,0-7-1.4-11.6-4.9
			l-1.6-1.3c-6.5-4.9-11-5.2-19.3,1.1c-5.8,4.4-9.4,9.2-11.5,14.8c-1.6,4.3-2.2,7.8-3.1,15.8c-0.6,6.1-1,8.7-1.8,12.1
			c-0.9,3.5-2.1,5.8-3.7,7.2c-1.2,1.1-2.3,1.5-4.8,2.2c-4.7,1.3-6.6,3.1-8.1,9.6c-1.9,8.5-4,13.9-7.4,19.8c-1.2,2.2-6.8,11-8.2,13.4
			c-4.3,7.1-7.2,17.4-9.7,32c-0.6,3.5-1.2,7.1-1.7,10.7c0,0.1-1.2,8-1.5,10.1c-4.4,28.9-9.3,53-13.5,61.2c-1.5,2.8-2.6,5.6-5.4,13
			c-1.8,4.7-3.2,8.3-4.6,11.1v-1.6c1.4-3,3-6.8,4.9-12c2.1-5.5,3.3-8.4,4.8-11.2c4.2-8.1,9-32.1,13.4-60.8c0.3-2.1,1.5-10,1.5-10.1
			c0.6-4.2,1.1-7.5,1.7-10.7c2.5-14.8,5.5-25.2,9.8-32.4c1.4-2.4,7-11.3,8.2-13.4c3.3-5.8,5.3-11.1,7.2-19.4
			c0.9-3.8,2.1-6.3,3.7-7.9c1.2-1.2,2.4-1.7,4.9-2.4c2.4-0.6,3.4-1.1,4.5-2.1c1.5-1.3,2.6-3.4,3.4-6.7c0.8-3.3,1.2-5.9,1.8-11.9
			C64.8,6,65.4,2.3,67.1-2.1c2.2-5.8,5.9-10.7,11.8-15.2c8.4-6.4,13-6.1,19.6-1.1l1.7,1.3c4.5,3.5,7.3,4.8,11.5,4.8
			c5.7,0,9.3-1.2,12.7-3.5c0.5-0.4,2.4-1.8,2.9-2.1c1.3-1,2.7-1.4,4.1-1.4c1.6,0,2.9,0.1,7.3,0.3c6,0.3,8.9,0.3,10.8-0.3
			c4.8-1.9,9.1-4.8,12.4-9.2c4.2-5.5,6.6-12.9,6.6-22.3c0-7-0.1-11.9-0.4-22.7C167.9-80.7,167.8-86.3,167.7-91.8L167.7-91.8z
			 M42.7-91.8h1.1c-0.4,4-0.8,6.8-1.6,9.5c-1.2,4.4-1.5,5.8-2.7,13c-0.3,1.7-0.6,3.4-1,5c-1.2,4.7-3.1,8.8-6.8,14.3
			c-4.2,6.1-7.4,16.6-10.4,31.6c-1.2,6.2-4.5,25.6-5,28c-1.4,7.2-3.4,12.7-8.1,23.7l-1.4,3.2c-3.1,7.3-4.8,12.1-6.1,17.2
			C-0.5,58.6-3,63.6-6,67.8v-2.4c2.7-3.9,4.7-8.3,5.8-12.6C1,47.5,2.8,42.7,6,35.3L7.4,32c4.6-10.8,6.6-16.2,7.9-23.1
			c0.5-2.3,3.8-21.7,5-28c3.1-15.3,6.4-26,10.7-32.4c3.6-5.3,5.4-9.2,6.5-13.6c0.3-1.4,0.6-2.7,1-4.8c1.3-7.4,1.6-8.8,2.8-13.3
			C41.9-85.9,42.4-88.8,42.7-91.8L42.7-91.8z M47.4-91.8h0.5c-0.9,8.3-1.5,12.7-2.4,15.3c-0.8,2.6-1.5,5.4-2.1,8.2
			c-0.7,3-1.3,6.2-1.8,9.4c-0.2,1.1-0.4,2.2-1.2,5.4c-2.3,4.3-4.5,8.7-6.6,13.3c-1.8,4-3.1,7.3-3.7,9.7c-0.5,1.9-1.1,6-1.9,13
			c-0.3,2.9-1.9,17.2-2.3,21.1c-1.9,16.5-3.4,26.7-5.1,32c-4,12.5-5.5,15.7-19.2,41.1c-2.2,4.2-4.7,7.9-7.4,10.9v-1.2
			c2.6-2.9,4.9-6.4,7.1-10.4C14.8,50.6,16.3,47.3,20.2,35c1.7-5.2,3.2-15.4,5.1-31.7c0.4-3.9,2-18.2,2.3-21.1
			C28.4-24.9,29-29,29.5-31c0.6-2.5,1.9-5.9,3.8-9.9c0.5-1,1-2.1,1.5-3.2c1.2-2.6,2.6-5.2,3.9-7.8c0.5-0.9,0.9-1.7,1.7-3.4
			c0.7-4.6,1.5-9.1,2.5-13.5c0.6-2.9,1.3-5.7,2.2-8.4C45.9-79.5,46.5-83.8,47.4-91.8L47.4-91.8z M37.4-91.8H38
			c-1.1,4.7-3.1,8.9-5.9,12.3c-3.7,4.5-8.6,7.2-12.6,7.2c-4.6,0-6.1,7-6.1,21.5c0,1.7,0,3.2,0.1,6c0.1,3.3,0.1,4.5,0.1,6
			c0,5.7-0.4,11.3-1,16.5c-0.3,2.4-0.7,4.7-1.1,7C10.1-10,8.9-4.7,7.7,0.6C4.3,15.2,0.8,29.9-2.7,44.4c-0.9,3.8-2,7.5-3.3,10.8v-1.7
			c1.1-3,2.1-6.2,2.9-9.6c4.4-18.5,8.8-37.2,13-55.8c0.3-1.2,0.5-2.2,1.3-5.9c1.1-6.8,1.7-13.9,1.7-21.1c0-1.5,0-2.7-0.1-6
			c0-2.8-0.1-4.3-0.1-6c0-6.8,0.3-11.6,1.1-15.3c1-4.7,2.8-7.2,5.5-7.2c4,0,8.7-2.6,12.4-7.1C34.4-83.5,36.3-87.4,37.4-91.8
			L37.4-91.8z M183.9-91.8h0.5c1,10,1.1,12.7,1.2,18.3c0.6,9.2,0.7,18.6,0.2,27.8c-0.5,8.8-1.6,16-3.4,21.2
			C176.5-8,161.7,4.7,147.9,4.7c-2.6,0-5.4,0.3-8.5,0.8c-4.2,0.8-8.4,1.9-12.6,3.2c-11.2,3.3-14.3,4-18.8,4c-3.6,0-6.3-1.1-11.2-3.9
			L95.3,8c-0.7-0.4-1.3-0.7-1.9-1c-4.1-2.1-7.4-2-11.2,0.7c-2.1,1.4-3.8,4.4-4.8,8.2c-0.8,3.1-1.3,6.1-2.1,12.8
			c-0.8,6.6-1.2,9.5-2.1,12.6c-0.5,2-1.2,3.8-2.1,5.2c-0.9,1.4-1.9,2.5-3,3.2c-1.7,1-3.3,2.1-4.9,3.4c-3.4,2.8-5.2,5.6-7.2,10.5
			c-0.7,1.8-0.5,1.3-2.8,7.9c-1,3-2.4,5.8-4.4,9.1c-1,1.8-5.6,8.8-6.7,10.7c-3.8,6.4-6.5,12.1-8.6,19.1c-2.2,7.3-4,18.3-5.8,33.3
			c-0.5,3.7-0.9,7.6-1.4,12.1l-0.6,5.8l-0.6,5.5c-0.9,9-1.4,13.3-2,16.3c-3.5,20.4-8.9,42.2-14.1,51.2c-2.6,4.7-4.2,7.1-5.8,8.9
			c-0.5,0.5-1,1-1.5,1.6c-0.2,0.2-5,4.4-7.3,6.7l-0.6,0.6v-1.1l0.4-0.4c2.3-2.3,7.1-6.4,7.3-6.7c0.5-0.5,1-1,1.5-1.5
			c1.5-1.8,3-4.1,5.7-8.7c5-8.9,10.4-30.5,13.9-50.8c0.5-2.9,1-7.2,1.9-16.1l0.6-5.5c0.6-6,1.3-12,2-18c1.8-15.1,3.7-26.1,5.9-33.5
			c2.1-7.1,4.9-13,8.7-19.4c1.1-1.9,5.6-9,6.7-10.7c2-3.3,3.3-6.1,4.3-8.9c2.3-6.6,2.1-6.2,2.8-8c2-5,3.9-7.9,7.4-10.8
			c1.4-1.1,3-2.2,5-3.5c1-0.6,2-1.6,2.8-3c0.8-1.4,1.5-3,2-4.9c0.8-3,1.3-5.9,2.1-13c0.7-6.3,1.2-9.3,2.1-12.5c1-4,2.8-7.1,5-8.7
			c4-2.8,7.3-2.8,11.6-0.8c0.6,0.3,1.2,0.6,1.9,1l1.9,1.1c4.4,2.5,7.1,3.6,10.6,3.6c4.5,0,7.6-0.8,18.8-4c4.2-1.3,8.4-2.4,12.7-3.2
			c3-0.5,5.9-0.8,8.5-0.8c13.6,0,28.2-12.6,34-28.8c1.8-5,2.9-12.1,3.3-20.7c0.4-7.7,0.4-16,0-23.9c-0.1-1.7-0.2-3.4-0.3-5.1
			C185-79.3,184.8-81.7,183.9-91.8L183.9-91.8z M3.8-91.8h0.5c-1,7.6-1.4,10.2-2.8,16.2c-1,4.4-1.4,9.2-1.3,14.9
			c0.1,4.3,0.4,7.7,1.2,16.1c0.6,5.9,0.8,8.8,1,12.2C2.9-23.5,2.6-16.3,1-9.6C-1.2-0.3-3.5,8.7-6,17.7v-2.1C-3.7,7.2-1.5-1.3,0.5-10
			C2-16.5,2.4-23.5,1.9-32.3c-0.2-3.4-0.4-6.3-1-12.1c-0.8-8.5-1.1-11.9-1.2-16.3C-0.4-66.5,0-71.5,1-76C2.4-81.9,2.8-84.5,3.8-91.8
			L3.8-91.8z M149.2-91.8c-0.7,3.9-1.5,7.6-2.5,11.2c-1.3,4.7-2.1,8.5-2.5,12l-0.2,1.8l-0.1,1.5c-0.1,0.7-0.2,1.4-0.4,2.1
			c-0.4,1-1,1.3-2.7,1.3c0.5,0-5.1-0.3-7.8-0.3c-5.3,0-9.6,0.8-15.3,2.6c-8.7,2.7-9.2,2.8-12.3,2.5c-1.4-0.1-2.8-0.5-4.1-1.1
			c-9.2-4.2-23.9-5.9-28.4-3c-1.4,0.9-3,2.8-4.9,5.6c-1.2,1.7-2.3,3.6-3.4,5.5c-0.7,1.3-4.8,8.5-5.6,9.8c-0.8,1.2-4.2,7.4-4.6,8
			c-0.8,1.3-1.6,2.6-2.4,3.9c-2.6,4-4.6,6.2-6.2,6.2c-1.8,0-2.2,0-2.7-0.4c-0.6-0.6-0.8-1.7-0.6-3.6c0.4-3.6,2.3-10.8,6.7-24.8
			c2.9-9.5,4.9-18,6.1-26.2c0.8-5,1-7.4,1.5-14.5h0.5c-0.5,7.3-0.8,9.7-1.6,14.8c-1.2,8.3-3.2,16.9-6.2,26.4
			c-4.3,13.8-6.2,21-6.6,24.5c-0.2,1.5,0,2.1,0.3,2.5c0.3,0.3,0.7,0.4,1.8,0.3c2,0,4-2.1,6.5-6c0.7-1.1,1.5-2.4,2.3-3.9
			c0.3-0.6,3.8-6.8,4.6-8.1c0.8-1.3,4.8-8.6,5.6-9.8c1.2-2.2,2.4-4,3.4-5.5c1.9-2.9,3.6-4.8,5.1-5.7c4.5-2.9,19.4-1.2,28.6,3
			c1.3,0.6,2.7,1,4,1.1c3,0.3,3.5,0.1,12.2-2.5c5.7-1.8,10-2.6,15.3-2.6c2.7,0,8.3,0.3,7.8,0.3c1.5,0,2-0.2,2.2-0.8
			c0.1-0.3,0.2-0.8,0.3-1.7l0.1-1.4l0.2-1.9c0.5-3.6,1.2-7.4,2.6-12.2c1-3.4,1.8-7,2.5-10.8H149.2L149.2-91.8z M144.7-91.8
			c-3.1,17.9-4.9,22-10.2,22c-2.3,0-5.3,0.3-14.9,1.5l-0.8,0.1c-8.1,1-12.2,1.4-14.9,1.4c-2.8,0-6.9-1-15-3.3l-0.8-0.2
			c-9.5-2.7-12.5-3.5-14.8-3.5c-2.3,0-3.8,1-5.7,3.3c-0.1,0.1-0.9,1.2-1.2,1.5c-1.3,1.5-2.2,2.2-3.5,2.2c-1.5,0-2.1-1.5-2.1-4.2
			c0-1,0.1-2.3,0.3-4.1c0.1-0.8,0.5-4.4,0.6-5.3c0.4-4.1,0.7-7.7,0.8-11.4h1c-0.1,3.8-0.4,7.5-0.8,11.8c-0.1,0.9-0.5,4.5-0.6,5.3
			c-0.1,1.2-0.2,2.5-0.2,3.7c0,1.7,0.2,2.2,1.1,2.2c1,0,1.8-0.6,3-1.9c0.2-0.3,1.1-1.4,1.2-1.4c2.1-2.5,3.7-3.7,6.2-3.7
			c2.4,0,5.3,0.7,15,3.5l0.8,0.2c8,2.3,12.1,3.3,14.8,3.3c2.7,0,6.8-0.4,14.8-1.4l0.8-0.1c9.6-1.2,12.6-1.5,14.9-1.5
			c4.6,0,6.3-3.4,9.2-20H144.7z M67.3-91.8h0.6c-1.1,3.9-1.4,5.1-1.4,6.2c-0.1,1.1,0.2,1.6,1.2,2c0.9,0.3,2,0.4,5.6,0.4
			c3.1,0,6.7,0.6,11.1,1.6c2,0.5,4.2,1.1,6.8,1.9c12.4,3.7,11.7,3.5,13.9,3.5c12.4,0,26.9-2.2,31.3-6.9c1.5-1.6,2.6-4.5,3.4-8.6h0.6
			c-0.9,4.5-2.1,7.7-3.7,9.4c-4.6,4.8-19,7.1-31.6,7.1c-2.3,0-1.5,0.2-14-3.5c-2.6-0.8-4.8-1.4-6.8-1.9c-4.3-1.1-7.9-1.6-11-1.6
			c-3.6,0-4.7-0.1-5.7-0.4c-1.2-0.4-1.8-1.3-1.6-3.1C66.1-86.9,66.3-88.1,67.3-91.8L67.3-91.8z M106.9-91.8c2.9,1.6,5.4,2.5,7.3,2.5
			c5,0,8.7-0.7,11.6-2.5h1.5c-3.2,2.5-7.3,3.5-13.2,3.5c-2.3,0-5.3-1.2-9.1-3.5H106.9L106.9-91.8z M30.6-91.8
			c-1.5,3.3-3.6,5.4-6.2,6.5c-2.1,0.9-3.9,1.1-6.7,1c-0.3,0-0.6,0-0.9,0c-2.8,0-4.6-1.2-5.2-5c-0.1-0.8-0.2-1.7-0.2-2.5h0.5
			c0,0.8,0.1,1.6,0.2,2.2c0.5,3.2,2.2,4.3,4.7,4.3l0.9,0c2.8,0.1,4.6-0.1,6.6-1c2.3-1,4.2-2.8,5.6-5.6H30.6L30.6-91.8z M-6,116.1
			c3.8-0.2,6,3.3,6,11.1c0,11.4-2.6,28.4-6,41.5v-2.3c3.1-12.7,5.4-28.5,5.4-39.2c0-7.2-1.9-10.3-5.4-10.1V116.1z M-6,123.2
			c0.6,0.1,1.1,0.6,1.5,1.3c0.7,1.5,0.8,3.7,0.6,7.6l-0.1,1.3c-0.1,1.3-0.2,2.6-0.2,3.9c0,3.2-0.8,9.5-1.8,15.9v-3.5
			c0.8-5.1,1.3-9.9,1.3-12.5c0-1,0-1.8,0.2-4l0.1-1.3c0.2-3.6,0.1-5.6-0.5-6.8c-0.3-0.5-0.6-0.9-1.1-1V123.2L-6,123.2z M-6,319.2
			v-1.5c0.6-1.4,1.1-3,1.5-4.7c0.7-2.7,1.4-6.3,2.4-11.9C2,277.6,2,274.6-2,270.8c-1.2-1.1-2.5-1.4-4-0.9v-1c1.4-0.6,2.9-0.2,4.3,1
			c4.3,4.1,4.3,7.6,0.1,31.6c-1,5.7-1.7,9.3-2.4,12C-4.5,315.6-5.2,317.5-6,319.2L-6,319.2z M11.4,360.3c0.9,0,1.6-0.2,4.3-1.3
			l1.2-0.5c4.3-1.6,6.6-1.3,7.5,2.3c0.7,2.8-0.2,5.9-2.5,9.7c-0.8,1.4-1.7,2.8-2.6,4.1c-0.5,0.7-2.5,3.6-3,4.3c-1,1.4-1.5,2.4-1.8,3
			c-0.7,1.7-1.2,3.5-1.5,5.5c0-0.2-2.1,13.7-3.6,22.2c-1.4,7.9-2.9,10.7-4.6,8.6c-1.1-1.4-1.9-4.2-3.4-11c-1-4.6-1.3-5.8-1.8-7.4
			c-2.4-8.2-2-23.9,0-32.9c0.3-1.5,0.8-2.8,1.4-3.9c0.6-1,1.4-1.8,2.2-2.1c1.3-0.7,2.5-0.8,6.1-0.7L11.4,360.3L11.4,360.3z
			 M11.4,362.3c-0.6,0-1.1,0-2,0c-6.3-0.1-7.7,0.6-8.8,5.4c-1.9,8.5-2.2,23.6,0,31.1c0.5,1.7,0.8,2.9,1.8,7.6
			c1.4,6.3,2.2,9.1,3,10.1c0.9,1.1,1.8-0.8,3-7.6c1.3-7.4,2.5-14.8,3.6-22.2c0.4-2.2,0.9-4.2,1.6-6c0.3-0.9,1-1.9,2-3.4
			c0.5-0.7,2.5-3.6,3-4.3c1-1.5,1.9-2.8,2.6-4c1.9-3.2,2.6-5.7,2.2-7.3c-0.6-2.4-2.6-2.7-6.4-1.3L16,361
			C13.1,362.1,12.4,362.3,11.4,362.3L11.4,362.3z M190.6,508.4c-1.8-12.3-2-14.1-2-19c0-3.3-0.1-6.3-0.2-11.3
			c-0.3-10.3-0.3-13.5,0.1-17.1c0.6-4.7,2.2-7.1,5-7.1H207c2.1,0,2.7,1.9,3.1,7.1c0.1,0.8,0.1,1,0.1,1.3c0.4,5.4,1.5,7.6,4.6,7.6
			c1.9,0,2.9,0.4,3.3,1.4c0.4,0.8,0.4,1.4,0.2,3.9c-0.4,5.3,0.3,8.9,3.9,13.8c3.3,4.5,6,5.4,8.6,3.4c2-1.5,3.5-4.2,6.2-10l0.6-1.2
			l0.6-1.2c0.5-1,0.9-1.9,1.4-2.9c1.5-2.8,3.1-5,5-6.7c0.8-0.8,0.9-0.9,2.9-2.6c3.2-2.7,4.7-4.5,6.1-7.6c1.4-3,2.4-4.9,3.5-6
			c1.6-1.8,2.8-2.1,7.1-2.1c3.1,0,5.5-4.3,9.3-15l1.5-4c0.5-1.5,1-2.7,1.4-3.8c4.1-10.1,10-10.4,15.9,1c2.9,5.5,5.3,19.4,7.1,38.5
			c1.3,13.8,2.2,29.5,2.3,39.9h-0.5c-0.2-10.3-1-26-2.3-39.7c-1.8-18.9-4.2-32.7-6.9-38c-5.7-11-11.3-10.7-15.2-1
			c-0.4,1.1-0.9,2.3-1.4,3.8l-1.5,4c-4,11-6.4,15.4-9.8,15.4c-4.2,0-5.3,0.3-6.8,2c-1,1.1-2,2.9-3.3,5.8c-1.5,3.3-3,5.1-6.3,7.9
			c-1,0.8-2,1.7-2.9,2.6c-1.8,1.7-3.4,3.9-4.8,6.5c-0.7,1.3-1.3,2.7-1.9,4.1l-0.6,1.2c-2.7,6-4.3,8.6-6.4,10.3
			c-2.7,2.1-5.7,1.2-9.1-3.5c-3.8-5.2-4.6-9.2-4.1-14.8c0.2-2.1,0.2-2.6-0.1-3.1c-0.3-0.7-1.2-1-3-1c-3.4,0-4.6-2.6-5.1-8.4
			l-0.1-1.3c-0.3-4.8-0.8-6.2-2.6-6.2h-13.5c-2.6,0-3.9,2-4.5,6.3c-0.5,3.4-0.4,6.6-0.1,16.8c0.1,3.8,0.2,7.6,0.2,11.4
			c0,4.8,0.2,6.6,2,19H190.6z M197.7,508.4c-0.7-6.6-0.8-10.7-0.7-14.8c0-0.7,0.1-1.4,0.1-2.4l0.1-2.6c0.2-3.8,0.3-7,0.3-11.2
			c0-4.9,0.8-7.8,2.2-8.4c1.2-0.6,2.9,0.5,4.8,3c3.4,4.5,7.3,13.1,8.6,19.2c2.5,11.4,7.3,15.7,17.4,15.7c4.5,0,7.4-2.4,10.7-7.9
			c0.8-1.3,7.8-15,10.9-20c3.7-6.1,6.1-7.6,10.7-8.3c2.9-0.5,4.1-0.9,5.9-2.4c2.4-1.9,4.9-5.5,7.7-11.3c3.9-7.8,6.9-8.9,9.1-4.3
			c1.7,3.6,2.8,10.6,3.5,20.2c0.4,5.2,0.5,7.7,0.8,17.4c0.1,3.8,0.1,5.3-0.5,18h-0.5c0.6-12.7,0.6-14.3,0.5-18
			c-0.3-9.6-0.4-12.2-0.8-17.3c-0.7-9.5-1.8-16.3-3.4-19.7c-1.9-4.1-4.6-3.1-8.3,4.3c-2.9,5.9-5.5,9.5-7.9,11.5
			c-1.9,1.5-3.2,2-6,2.4c-4.6,0.7-6.8,2.2-10.5,8.1c-3.1,5-10.1,18.7-10.9,20c-3.4,5.7-6.5,8.1-11.1,8.1c-10.3,0-15.3-4.4-17.9-16.3
			c-1.3-6-5-14.4-8.4-18.8c-1.8-2.3-3.3-3.4-4.4-2.9c-1.1,0.5-1.8,2.9-1.8,7.5c0,4.3-0.1,7.5-0.3,11.3l-0.1,2.6
			c0,0.9-0.1,1.6-0.1,2.4c-0.1,4.1,0,8.2,0.7,14.8H197.7L197.7,508.4z M256.6,508.4c1.3-3.3,4.6-11.8,5.6-14.3
			c2.8-7,6.8-12.4,10.1-13.9c3.6-1.7,6,1.5,6,9.2c0,4,0,5.2-0.4,19h-0.5c0.4-13.9,0.4-15,0.4-19c0-7.1-2-9.8-5.3-8.3
			c-3.2,1.5-7,6.8-9.8,13.6c-1,2.4-4,10.1-5.4,13.7H256.6L256.6,508.4z M251.5,169.3c1.8,2.7,3.6,5.1,5.9,7.8
			c0.5,0.6,4.4,4.9,5.4,6.1c5.8,7,7.8,13.4,6.4,25.3c-0.8,6.5-2.3,11.1-4.9,14.4c-2,2.6-4.2,4.3-8.3,6.6c-6.2,3.5-7.1,4-9.8,6.3
			c-1.4,1.2-2.8,2.6-4,4.2c-5.8,7.1-9.9,7.7-14.5,3.3c-1.8-1.8-8.9-11-8.9-11c-0.9-1.1-1.8-2.1-2.7-3.1
			c-8.3-8.8-17.8-24.2-17.9-31.9c-0.1-3.5,1-6.6,3.3-10.3c0.5-0.9,1.1-1.8,1.9-3c0.4-0.6,1.8-2.6,2-3c2.3-3.4,3.7-5.8,4.8-8.5
			c5.8-13.8,13.8-28.7,17.8-32.3c6.3-5.5,10.3-5.8,14.2,0.1c1.7,2.5,2.9,6.5,4.4,13.4c0.1,0.7,1.2,5.5,1.5,6.7
			c0.8,3.7,1.5,5.8,2.2,6.9C250.8,168.1,251.1,168.7,251.5,169.3L251.5,169.3z M249.7,169c-0.8-1.4-1.6-3.7-2.5-7.7
			c-0.3-1.3-1.3-6.1-1.5-6.8c-1.5-6.5-2.6-10.3-4.1-12.6c-3.5-5.4-7.2-5.2-13.1,0.1c-3.9,3.4-11.8,18.1-17.4,31.7
			c-1.2,2.8-2.6,5.3-5,8.8l-2,3c-0.6,0.9-1.3,1.9-1.9,2.9c-2,3.3-2.9,6-2.9,8.7c0.1,6.6,9.4,21.7,17.4,30.2c0.9,1,1.8,2,2.7,3.1
			c0.1,0.1,7.1,9.2,8.8,10.9c4.3,4.1,8,3.5,13.5-3.2c1.3-1.6,2.7-3.1,4.2-4.3c2.7-2.4,3.6-2.9,9.9-6.4c4-2.2,6.2-3.8,8-6.3
			c2.3-3,3.7-7.2,4.4-13.2c1.3-11-0.4-16.6-5.9-23.2c-1-1.2-4.8-5.4-5.3-6.1c-2.3-2.7-4.2-5.1-6-7.9
			C250.5,170.3,250.1,169.7,249.7,169L249.7,169z M39.5,149.9c2.2-3,4.1-5,6.3-7c0.4-0.4,0.9-0.8,1.4-1.2l2.3-1.9
			c3.2-2.6,6.2-5.6,9.2-9c4.7-5.3,9.5-10.1,14.4-14.5c2.2-1.9,11.3-9.8,11-9.5c9.9-8.6,14.6-6.9,25.7,8.1c4.1,5.5,6.9,13.3,8.5,22.7
			c1.6,8.8,1.9,16.5,1.9,27.8c0,8.3-0.3,13-1.9,19c-2.2,8.4-6.4,16.1-13.3,23.5c-12.7,13.5-20.1,27.6-27.4,47.9
			c-4.6,12.8-24.8,44.2-33.8,54.2c-11,12.1-24.5,22.1-33.8,22.1c-5.2,0-7.6-4.8-7.7-13.4c0-6.3,1.1-13.7,3.3-24.3
			c1.5-7.4,1-12.9-1.1-22.3c-1.7-7.2-2-9.1-2-12.5c0-3.4,1-6.9,2.9-11.1c1.4-3,1.8-3.8,6.2-11.5c2.6-4.7,4.2-7.6,5.5-10.8
			c4.9-11.4,6.5-19.5,9.3-44.8c1.6-15.1,3.4-20.3,7.8-25.3c0.4-0.5,2-2.3,2.4-2.7C37.6,152.2,38.6,151.1,39.5,149.9L39.5,149.9z
			 M39.8,150.7c-0.9,1.2-1.9,2.4-2.8,3.4l-2.4,2.7c-4.3,4.8-6,9.8-7.6,24.6c-2.7,25.5-4.4,33.7-9.4,45.2c-1.4,3.2-2.9,6.2-5.6,10.8
			c-4.3,7.6-4.8,8.5-6.1,11.4c-1.8,4-2.7,7.4-2.7,10.4c0,3.2,0.4,5.1,2,12.1c2.2,9.6,2.7,15.4,1.1,23.1C4,305,2.9,312.3,2.9,318.5
			c0,8.1,2.2,12.4,7.1,12.4c9.2,0,22.6-9.9,33.6-21.9c9-9.9,29.1-41.2,33.6-53.9c7.3-20.4,14.8-34.6,27.6-48.2
			c6.8-7.2,10.9-14.9,13-23c1.5-5.9,1.9-10.4,1.9-18.5c0-11.1-0.4-18.7-1.9-27.4c-1.6-9.2-4.3-16.8-8.3-22.2
			c-11-14.8-15.4-16.4-25.1-8c0.4-0.3-8.8,7.6-11,9.5c-0.9,0.8-1.7,1.6-2.5,2.3c-4,3.7-8,7.8-11.9,12.2c-3,3.4-6.1,6.4-9.3,9
			l-2.3,1.9c-0.5,0.4-1,0.8-1.4,1.2C43.8,145.7,41.7,148,39.8,150.7L39.8,150.7z M35.8,162.9c4-6.3,6.4-8.2,12.3-11.3
			c3.2-1.7,4.7-3,6.4-5.7c2-3.3,3.9-4.5,8.2-6.1c1.4-0.5,1.9-0.7,2.6-1c2.8-1.2,4.9-2.9,6.8-5.9c5.4-8.5,13.2-14.1,18.8-14.1
			c2.8,0,8.7,7.6,13.3,17.2c5.6,11.5,8.3,23.3,6.6,32.5c-1.6,9.1-5.9,18.6-11.9,27.9c-4.4,6.7-9.5,13-13.1,16.4
			c-1.9,1.9-3.4,4.9-5.1,10c-0.4,1.1-5.8,20.3-8.3,27.8c-2.9,8.7-8,17.4-15.7,28c-1.6,2.2-3.2,4.3-4.8,6.4c-0.1,0.1-3.5,4.7-4.5,5.9
			c-3.4,4.5-5.4,7.4-6.8,9.8c-6,10.7-19.3,15.5-22.7,9c-1-2-1.1-4.1-1-10.5c0.2-9.4-0.3-14.5-2.6-20.5c-1-2.6-2.3-5-3.6-6.9
			c-2-3-3.1-6.1-3.4-9.5c-0.5-6.6,2-13.1,7.3-21.7c0.8-1.3,3.5-5.4,3.7-5.8c1-1.5,1.9-3.1,2.7-4.8c2.1-4.6,3-9.6,4-20.1
			c0.1-1.5,0.3-2.9,0.4-4.4c0.2-1.9,0.3-3.3,0.5-4.7c0.4-3.8,0.8-7.2,1.2-10.6c0.5-3.8,0.7-5.5,1.2-10.4c0.3-3,0.5-4.2,0.8-5.5
			C30.1,171.9,30.1,171.8,35.8,162.9z M36.2,163.7c-5.6,8.7-5.6,8.8-6.2,11.1c-0.3,1.2-0.5,2.3-0.8,5.2c-0.5,4.9-0.7,6.6-1.2,10.4
			c-0.5,3.4-0.9,6.8-1.2,10.6c-0.2,2.3-0.5,4.6-0.7,7l-0.2,2.2c-1,10.7-2,15.7-4.2,20.5c-0.9,1.8-1.8,3.4-2.8,4.9
			c-0.2,0.3-2.9,4.5-3.7,5.8c-5.2,8.4-7.6,14.7-7.2,20.8c0.2,3.1,1.3,6,3.2,8.8c1.6,2.3,2.8,4.6,3.8,7.1c2.4,6.2,2.9,11.5,2.7,21.2
			c-0.1,6.1,0,8.1,0.9,9.8c3.2,6.1,16.1,1.3,21.9-9c1.4-2.5,3.5-5.4,6.8-9.9l4.5-5.9c1.9-2.5,3.3-4.4,4.8-6.4
			c7.6-10.5,12.7-19.2,15.5-27.7c2.5-7.5,7.9-26.7,8.3-27.8c1.7-5.3,3.2-8.4,5.3-10.4c3.5-3.4,8.6-9.6,13-16.3
			c6-9.2,10.2-18.5,11.8-27.4c1.6-8.8-1-20.3-6.5-31.5c-4.6-9.4-10.4-16.8-13-16.8c-5.5,0-13.2,5.5-18.5,13.9
			c-1.9,3.1-4.1,4.8-7,6.1c-0.7,0.3-1.2,0.5-2.6,1c-4.3,1.6-6.1,2.7-8,5.9c-1.7,2.9-3.3,4.2-6.6,5.9
			C42.4,155.7,40.1,157.5,36.2,163.7L36.2,163.7z M103.9,160.1c0,7.6-0.3,10.9-1.3,14.3c-0.6,1.8-4,10.1-4.5,11.3
			c-3.1,7.9-4.8,10.3-8.9,13.8c-0.7,0.6-1.1,1-1.6,1.5c-0.3,0.3-0.6,0.7-1,1c-0.4,0.3-2.3,1.9-2.9,2.4c-3.1,2.8-4.7,5.8-4.7,10.7
			c0,11-9.8,36.1-17.9,44.9c-4.2,4.6-11,9.4-17,11.9c-6.9,2.9-11.7,2.5-12.8-2.3c-0.7-3-2.3-4.3-6.2-5.8l-0.3-0.1
			c-2.5-1-3.6-1.5-4.7-2.6c-1.5-1.5-2.3-3.7-2.3-6.8c0-2.7,0.6-5.8,1.7-9.7c0.4-1.5,0.9-3.1,1.7-5.4c-0.1,0.3,1.5-4.4,1.9-5.8
			c3.5-10.7,5.1-18.5,5.1-27.2c0-18.4,5.8-33.4,14.3-42.9c2.7-3.1,4.8-3.3,7.9-2.1c2.6,1,3.1,0.9,3.9-1.5c2.3-7.9,3.6-9.5,8.2-9.5
			c2,0,3.6-1,5.4-3.2c0.8-1,4.5-6.2,5.7-7.7c4.8-6,5.9-7,13.1-12c3.6-2.5,7.9,1.3,11.6,9.1C101.6,143.6,103.9,153.1,103.9,160.1
			L103.9,160.1z M102.8,160.1c0-6.5-2.2-15.5-5.4-22.3c-3.5-7.3-7.3-10.7-10.5-8.6c-7.1,4.9-8.2,5.9-12.9,11.8
			c-1.2,1.5-4.9,6.7-5.7,7.7c-2,2.4-3.7,3.5-6,3.5c-4.2,0-5.2,1.2-7.3,8.5c-0.6,1.9-1.3,2.9-2.3,3.1c-0.7,0.1-1,0.1-2.7-0.6
			c-2.9-1.1-4.7-0.9-7.2,1.9c-8.1,9.2-13.7,23.6-13.7,41.2c0,9.2-1.7,17.3-5.3,28.3l-1.9,5.8c-0.7,2.2-1.2,3.8-1.6,5.3
			c-1,3.6-1.6,6.4-1.6,8.7c0,4.2,1.5,5.7,6.2,7.5l0.3,0.1c4.3,1.7,6.1,3.1,6.9,7c1.6,7.1,18.7,0,28.3-10.5
			c7.8-8.4,17.4-33,17.4-43.1c0-5.9,1.8-9.5,5.3-12.6c0.6-0.5,2.5-2.1,2.9-2.4c0.4-0.3,0.7-0.6,0.9-0.9c0.5-0.6,1-1,1.7-1.6
			c4-3.4,5.6-5.5,8.5-13.1c0.5-1.4,3.9-9.4,4.4-11.1C102.6,170.4,102.8,167.4,102.8,160.1L102.8,160.1z M83.6,137.7
			c0.1-0.1,1.2-1.5,1.5-1.8c0.5-0.6,0.9-0.9,1.3-1.2c1.3-0.8,2.6-0.1,5.7,3.1c7.7,8,10.1,22.9,4.8,38.7c-2.1,6.2-4.9,9-9.7,11.1
			c-0.4,0.2-0.6,0.3-1.6,0.7c-3.1,1.3-4.6,2.1-6,3.7c-1.9,2-3.2,5-3.9,9.4c-4.1,24.9-10.2,43.4-18.8,50.3c-8.5,6.9-11,8.5-14.5,8.9
			c-2.6,0.3-5.1-0.7-8-2.9c-1-0.7-2-1.6-2.9-2.6c-2.1-2.3-2.7-4.7-2.3-9.3c0.2-2.1,2-15.5,2.5-20.7c0.3-3.1,0.6-6.1,0.9-9.7
			c0.2-3,0.5-5.9,0.7-8.9c0.7-9.4,1.3-14.3,2.3-18.7c1.3-5.4,3.2-9,6.1-11.1c3.4-2.5,5.5-3.1,9.3-3.5c2.5-0.3,3.5-0.6,4.7-2.1
			c0.3-0.4,0.6-0.8,0.9-1.3c0.6-1,1.2-2.2,1.7-3.4c0.3-0.7,1.2-2.9,1.4-3.2c1.7-4,3.3-5.5,6.4-5.5c2,0,3.1-0.9,4.2-3.4
			c-0.1,0.2,1.4-3.1,2-4.2c1-2,2.2-3.7,3.5-5c0.8-0.8,1.6-1.6,2.6-2.4C80.2,141.4,81.9,139.7,83.6,137.7L83.6,137.7z M76.1,146.1
			c-1.2,1.3-2.4,2.9-3.4,4.8c-0.7,1.4-1.3,2.8-2,4.2c-1.3,2.6-2.4,3.7-4.6,3.7c-3,0-4.3,1.4-6,5.2c-0.1,0.3-1.1,2.5-1.4,3.2
			c-0.6,1.3-1.2,2.4-1.8,3.5c-0.3,0.6-0.7,1-1,1.4c-1.3,1.5-2.4,1.9-4.9,2.2c-3.8,0.4-5.8,1-9.2,3.5c-2.8,2-4.6,5.4-5.8,10.6
			c-1,4.3-1.6,9.1-2.3,18.4l-0.3,4.3l-0.4,4.6c-0.3,3.6-0.6,6.7-0.9,9.7c-0.6,5.2-2.4,18.5-2.5,20.6c-0.3,4.2,0.2,6.2,2.1,8.3
			c0.7,0.8,1.6,1.6,2.9,2.6c2.8,2.2,5.3,3.1,7.8,2.8c3.5-0.3,5.9-1.9,14.3-8.8c8.4-6.8,14.5-25,18.5-49.7c0.8-4.7,2.1-7.9,4.1-10
			c1.5-1.6,3-2.5,6.2-3.8c1-0.4,1.2-0.5,1.6-0.7c4.7-2.1,7.4-4.7,9.4-10.7c5.1-15.3,2.9-29.6-4.6-37.3c-3-3.1-4.2-3.8-5.3-3.1
			c-0.3,0.2-0.7,0.5-1.2,1.1c-0.3,0.3-1.4,1.7-1.5,1.8c-1.7,2-3.4,3.7-5.3,5.2C77.7,144.5,76.8,145.3,76.1,146.1L76.1,146.1z
			 M54.1,178.8c8.4-2.9,13.7-1,16.8,6.2c2.6,5.9,0.6,21.4-3.1,35.6c-2.5,9.6-5.5,16.2-12,25.2c-7.3,10.1-18.4,12.2-21.1,3.9
			c-1-3-1.1-8.1-0.5-15.7c0.4-5.7,1-10.7,2.5-23l0.1-0.5c0.8-6.8,1.2-10.3,1.6-14.1c0.8-7.3,1.9-11.5,3.8-13.7
			c1.5-1.8,2.9-2.3,6.4-2.6C51.2,179.6,52.4,179.4,54.1,178.8L54.1,178.8z M54.2,179.8c-1.7,0.6-2.9,0.8-5.7,1.1
			c-3.4,0.3-4.8,0.8-6.1,2.5c-1.7,2.1-2.8,6.1-3.5,13.1c-0.4,3.8-0.8,7.4-1.6,14.2l-0.1,0.5c-1.5,12.2-2,17.3-2.4,22.9
			c-0.5,7.4-0.4,12.4,0.5,15.1c2.5,7.7,13.2,5.7,20.4-4.2c6.4-8.9,9.4-15.4,11.8-24.8c3.6-13.7,5.6-29,3.1-34.5
			C67.5,178.8,62.4,177,54.2,179.8L54.2,179.8z M62.4,184.8c3.7,0,5.5,3.1,5.8,8.7c0.2,4-0.2,8.1-1.4,15.9
			c-1.3,8.5-9.5,25.4-14.1,31.3c-3.6,4.7-10.4,5.7-13.8,1c-2.1-2.9-1.8-12.1,0-26.5c0.4-2.8,0.8-5.7,1.2-8.8c0.5-3.4,1-6.8,1.6-10.1
			l0.2-1.2c0.8-4.8,2.6-7.8,5.6-9.3c2.3-1.2,4.9-1.5,9.1-1.3l2,0.1C60.6,184.7,61.4,184.8,62.4,184.8L62.4,184.8z M62.4,185.8
			c-1,0-1.8,0-3.8-0.2l-2-0.1c-4.1-0.2-6.7,0.1-8.9,1.3c-2.8,1.4-4.5,4.2-5.2,8.6c-0.3,1.7-0.6,3.5-0.8,5.2
			c-0.4,2.2-0.7,4.2-0.9,6.1c-0.5,3.1-0.9,6-1.2,8.7c-1.8,13.9-2,22.9-0.2,25.4c3.2,4.4,9.7,3.5,13.2-1c4.5-5.8,12.6-22.5,13.9-30.7
			c1.2-7.7,1.6-11.7,1.4-15.6C67.5,188.5,65.8,185.8,62.4,185.8z M53.2,192.8c1.5,0.1,3,0.5,4.4,1.4c2.8,1.8,4.5,5,4.5,10.1
			c0,9.6-4.9,17.2-11.6,21.5c-5.1,3.3-7.1-1.8-6-16.5c0.4-6.3,2-10.7,4.3-13.5C50.1,194.2,51.6,193.1,53.2,192.8L53.2,192.8z
			 M52.9,193.9c-1.4,0.4-2.6,1.3-3.8,2.7c-2.2,2.6-3.6,6.8-4,12.8c-1,14.1,0.7,18.5,5.4,15.5c6.5-4.2,11.2-11.5,11.2-20.5
			c0-4.6-1.5-7.5-4.2-9.2c-1.4-0.9-2.8-1.3-4.3-1.4C53.2,193.8,53,193.8,52.9,193.9L52.9,193.9z M94.8,170.4
			c-1.4,9.8-7.7,9.9-13.8,3.3c-5.3-5.6-7.2-18-2.6-22.9c0.8-0.8,1.6-1.7,2.3-2.7l1.1-1.3c0.7-0.8,1.3-1.6,2-2.3
			c2.5-2.4,4.6-2.8,7.3-0.7C95.8,147.5,96.7,157.1,94.8,170.4L94.8,170.4z M84,145.4c-0.7,0.7-1.3,1.4-2,2.3L81,149
			c-0.4,0.5-0.8,1-1.1,1.4c-0.4,0.5-0.8,1-1.2,1.4c-4.1,4.4-2.4,15.8,2.6,21.1c5.9,6.3,11.8,6.2,13.1-2.7c1.9-12.8,1-22-3.5-25.4
			C88.3,142.8,86.3,143.1,84,145.4L84,145.4z M93.3,157.6c0,5.7-1.3,9-3.4,10c-1.7,0.8-3.9-0.1-5.7-1.8l-1-0.9
			c-0.3-0.3-0.6-0.6-0.8-0.9c-2.1-2.4-2.1-5,0.2-10.9C86,143.9,93.3,145.8,93.3,157.6L93.3,157.6z M92.7,157.6
			c0-5.3-1.5-8.6-3.8-9.2c-2.2-0.6-4.7,1.4-6.1,5.2c-2.2,5.5-2.1,7.4-0.3,9.5c0.2,0.3,0.5,0.5,0.8,0.8l1,0.9
			c1.7,1.7,3.8,2.4,5.4,1.7C91.6,165.7,92.7,162.8,92.7,157.6L92.7,157.6z M194.6,438.7c0-12.8,1.3-16.7,9.6-29.8
			c1.2-1.9,2.6-3.7,3.9-5.2c1.3-1.5,2.8-2.8,4.4-4.2c0.6-0.5,1.3-1,2.1-1.7l2-1.6c4.9-3.8,7.1-6.7,8.6-12.1c0.6-2.2,1.1-4.4,1.7-6.8
			c0.3-1.3,0.5-2.6,0.8-3.8l0.2-0.7l0.3-1.4c1.7-8,3.1-12.1,6.6-16.5c0.9-1.2,1.8-2.5,2.6-4c0.7-1.3,1.4-2.8,2-4.3
			c0.1-0.3,1.3-3.2,1.7-4c1.8-4.2,3.4-5.9,6-5.9c1.6,0,2.9-0.6,5-2.1c2.8-2,3.4-2.3,4.6-2.2c1.3,0.1,2.5,1.3,3.7,3.6
			c0.7,1.3,2.9,5.8,3.4,6.8c2.6,5,4.9,6.9,9.2,6.9c2.1,0,4.2,0.2,6.3,0.5c8.3,0.9,11.4,0.6,13.1-2.2c3.6-5.8,6-2.7,6,7.8
			c0,10.7-4.5,20-9.8,20c-2.5,0-4.3,1.4-4.8,3.7c-0.6,2.5,0.4,6.2,3.1,10.6c7,11.3,5.8,20.8-4,20.8c-2.8-0.1-5.5,1.8-7.6,5.2
			c-1.7,2.7-3,5.9-5.1,11.8l-0.8,2.3c-1.6,4.6-2.6,7.1-3.8,9.4c-3.2,6.2-4.8,7.6-6.8,6.9l-0.5-0.2c-0.4-0.2-0.9-0.4-1.4-0.4
			c-0.8,0-1.2,0.7-4.2,6.2c-2.5,4.7-4.2,6.8-6.1,6.8c-0.7,0-1.8,1.2-3.3,3.5c-0.7,1-1.4,2.1-2.3,3.7l-2.5,4.3
			c-0.8,1.3-1.6,2.6-2.4,3.8c-4.8,7.6-8.1,10.2-10.5,6.5c-1.4-2.2-2.1-4.5-2.4-7.3c-0.2-2-0.1-3.6,0.2-7.3c0.5-5.9,0.3-8.4-0.9-11.6
			c-1.2-3-1.5-3.2-2-2.4c-0.1,0.3-0.7,1.6-0.8,1.9c-1.1,2.5-2.5,3.6-4.7,2.8c-2.4-0.8-2.9-4.1-2.4-10.1l0.1-1.6
			c0.3-3.7,0.4-4.9,0.1-5.8c-0.2-0.9-1-0.9-2.7,0.4l-0.4,0.3c-7.1,5.5-7.9,6.1-10.1,6.7C196.3,447.4,194.6,445,194.6,438.7
			L194.6,438.7z M195.6,438.7c0,5,1.1,6.6,3.6,5.9c2-0.5,2.8-1.1,9.8-6.6l0.4-0.3c2.2-1.7,3.5-1.5,4,0.6c0.4,1.4,0.3,2.8,0,7
			l-0.1,1.5c-0.4,5,0,7.3,1.6,7.8c1.8,0.6,2.8-0.2,3.7-2.2c0.1-0.2,0.7-1.7,0.9-2c1-2,2-1.3,3.5,2.5c1.5,3.7,1.6,6.8,1.1,13.1
			c-0.5,6.8-0.3,9.4,1.9,12.7c1.8,2.8,4.7,0.5,9.2-6.5c0.7-1.1,1.4-2.3,2.3-3.8l2.6-4.3c1-1.6,1.7-2.8,2.4-3.8c1.7-2.6,3-3.9,4-3.9
			c1.6,0,3.1-1.9,5.4-6.2l1.3-2.4c0.5-0.9,0.9-1.6,1.2-2.1c0.9-1.5,1.7-2.3,2.5-2.3c0.5,0,0.9,0.1,1.6,0.4c0.4,0.2,0.4,0.2,0.5,0.2
			c1.5,0.6,2.8-0.5,5.8-6.3c1.1-2.2,2.1-4.7,3.7-9.1l0.8-2.3c2.2-6.1,3.5-9.4,5.3-12.2c2.3-3.8,5.2-5.8,8.2-5.7
			c8.7,0,9.7-7,3.3-17.2c-3.1-4.9-4.2-9.4-3.4-12.9c0.7-3.1,2.9-4.8,5.8-4.8c4.8,0,8.8-8.3,8.8-18c0-8.9-1.5-10.8-4.3-6.2
			c-2,3.3-5.2,3.6-13.8,2.7l-0.5-0.1c-2.6-0.3-4.1-0.4-5.7-0.4c-4.6,0-7.1-2.1-9.9-7.5c-0.5-1-2.7-5.5-3.4-6.8c-1-2-2-2.9-3-3
			c-1.1-0.1-1.6,0.2-4.2,2.1c-2.2,1.6-3.6,2.2-5.3,2.2c-2.2,0-3.5,1.5-5.2,5.2c-0.3,0.7-1.5,3.6-1.6,4c-0.6,1.6-1.3,3.1-2.1,4.5
			c-0.8,1.6-1.7,3-2.7,4.2c-3.2,4.2-4.6,7.9-6.2,15.6l-0.3,1.4l-0.1,0.7c-0.3,1.3-0.5,2.6-0.8,3.9c-0.5,2.4-1.1,4.7-1.7,7
			c-1.6,5.9-4.1,9-9.1,13l-2,1.6c-0.8,0.6-1.5,1.2-2.1,1.7c-1.5,1.2-2.9,2.6-4.3,4.1c-1.3,1.5-2.6,3.2-3.8,5
			C196.7,423.1,195.6,426.6,195.6,438.7L195.6,438.7z M264.7,358.9c1.6,1.5,3.4,2,5.5,1.7c1.3-0.2,2.5-0.6,4.6-1.5
			c2.8-1.2,3.3-1.4,4.3-1.5c1.4-0.2,2.5,0.2,3.3,1.4c0.8,1.3,1,2.7,0.7,4.2c-0.3,1.4-0.5,1.7-2.6,5.1c-1.8,2.9-2.6,4.8-2.6,7.1
			c0,7.3,0.7,10,4.1,15.6c2,3.3,3.1,6.8,2.7,9.6c-0.4,3.3-2.6,5-6.5,5c-3.7,0-6.6,4.6-10.4,14.7c-0.3,0.7-2.1,5.6-2.6,6.9
			c-0.7,2-1.5,3.8-2.4,5.5c-0.6,1-1.1,1.7-1.6,2.1c-1.5,1.3-2.6,1.6-5.1,1.7c-4,0.3-5.6,1.5-7.8,7.1c-0.8,2.2-1.6,4-2.4,5.6
			c-1.3,2.6-2.8,4.8-4.5,6.7c-0.1,0.1-5.5,6.2-7.7,8.8c-1.9,2.4-3.3,2-4.3-0.8c-0.7-2-1-4.5-1.5-10.4c-0.4-5.1-0.7-7.1-1.1-8.9
			c-0.5-2.3-1.1-3.2-2.1-2.9c-3.2,1.2-4.6,1.4-5.7,0.2c-1.2-1.4-1.6-4.6-1.4-10.7c0.1-2-0.5-2.9-1.9-3c-1.2-0.1-2.5,0.2-5.2,1.1
			l-0.4,0.1c-4.1,1.5-5.6,1.7-6.6,0.7c-1.5-1.4-0.8-5.3,2.2-12.2c2.8-6.5,5.5-10.8,8.2-13.5c1.9-2,3.1-2.7,6.3-4.1
			c3.8-1.7,5.4-3.5,7.3-9.3c1.5-4.8,5.6-18.6,6.3-20.8c1.9-5.7,3.5-9.1,5.7-11.3c1.3-1.4,2.4-2.8,4.8-6.1l0.7-1c4.1-5.7,6.4-8,9.2-8
			c2.2,0,3.4,1.4,4.7,4.8c0.2,0.4,0.9,2.2,1,2.7c0.4,1.1,0.8,2,1.3,2.8C262.2,356.1,263.4,357.7,264.7,358.9L264.7,358.9z
			 M264.5,359.8c-1.5-1.4-2.6-3-3.6-5c-0.5-0.9-0.9-1.8-1.3-2.9c-0.2-0.5-0.9-2.3-1-2.7c-1.3-3.2-2.3-4.4-4.3-4.4
			c-2.6,0-4.9,2.2-8.9,7.8l-0.7,1c-2.3,3.3-3.4,4.7-4.8,6.2c-2.1,2.2-3.7,5.5-5.5,11c-0.7,2.2-4.7,16.1-6.3,20.8
			c-2,6.1-3.7,8-7.6,9.8c-3.2,1.4-4.3,2.1-6.2,4c-2.6,2.7-5.2,6.9-8,13.3c-2.8,6.5-3.4,9.7-2.4,10.7c0.9,0.8,2.3,0.6,6.3-0.8
			l0.4-0.1c2.7-0.9,4.1-1.3,5.3-1.1c1.7,0.2,2.6,1.5,2.4,4.1c-0.2,5.8,0.1,8.6,1.1,9.8c0.9,1,2.3,0.9,5.3-0.3
			c1.2-0.5,2.1,0.8,2.7,3.5c0.4,2,0.7,4,1.1,8.8l0,0.4c0.5,5.7,0.8,8.1,1.4,10c0.8,2.3,1.8,2.6,3.5,0.5c2.1-2.7,7.6-8.8,7.7-8.9
			c1.6-1.8,3.1-4,4.4-6.5c0.9-1.7,1.7-3.5,2.4-5.5c2.2-6,4-7.2,8.2-7.5c2.4-0.2,3.5-0.5,4.9-1.7c0.5-0.4,1-1.1,1.5-2
			c0.9-1.6,1.7-3.4,2.4-5.4c0.5-1.3,2.3-6.2,2.6-6.9c3.9-10.3,6.9-15.1,10.8-15.1c3.8,0,5.7-1.6,6-4.2c0.3-2.3-0.7-5.6-2.6-8.6
			c-3.5-5.8-4.2-8.8-4.2-16.4c0-2.7,0.9-4.7,2.8-7.9c2-3.2,2.2-3.6,2.5-4.7c0.3-1.1,0.1-2-0.5-3c-1.2-1.9-2.4-1.7-7.1,0.4
			c-2,0.9-3.3,1.3-4.6,1.5C268,361.9,266.1,361.4,264.5,359.8L264.5,359.8z M249.9,355.9c2.9-2.8,4.6-2.2,6.7,1.4
			c0.3,0.5,1.3,2.5,1.6,2.9c2.2,3.9,4.2,5.7,7.4,5.7c5.9,0,7.3,1.4,8.3,8.1c0.1,0.8,0.7,4.6,0.9,5.6c0.4,2.6,0.8,5,1.4,7.6
			c1.1,5.2,1.4,8.3,0.9,10.2c-0.4,1.6-1.1,2.2-2.8,2.8c-1.2,0.4-1.5,0.5-2,0.9c-1,0.6-1.7,1.4-2.4,2.7c-0.5,1-1,2.1-1.7,3.7
			c-0.3,0.7-1.5,3.5-1.8,4.1c-3.7,8.5-6.4,12.4-10.2,12.4c-1.9,0-3.6,1.3-5.5,4c-1,1.4-6,10.3-7.9,13.1c-1.5,2.2-3,4.1-4.6,5.9
			c-2.4,2.5-3.8,3.2-4.7,2.2c-0.7-0.8-0.9-2.1-1-5.5c0-0.6-0.1-1.2-0.1-1.8c-0.3-4.7-1.2-6.9-3.7-6.9c-3.7,0-4.6-1.2-5-5.4
			c-0.5-4.6-1.1-6.7-3.4-9.7c-2.1-2.7-2.2-5.4-0.8-8.2c1-2,2.4-3.5,5.9-6.9c3.4-3.3,4.8-4.8,5.8-6.7c1-2,2-4.1,2.7-6.5
			c0.5-1.5,0.9-3,1.5-5.1l1.1-4.3c0.5-1.8,0.9-3.4,1.4-5C240.9,366.8,243.3,362.3,249.9,355.9L249.9,355.9z M238.4,377.6
			c-0.5,1.6-0.9,3.1-1.3,4.9l-1.1,4.3c-0.5,1.8-1,3.5-1.5,5.2c-0.8,2.4-1.8,4.6-2.8,6.6c-1,2-2.4,3.5-5.9,6.9
			c-3.4,3.3-4.8,4.8-5.8,6.7c-1.2,2.3-1.1,4.4,0.7,6.7c2.4,3.1,3.1,5.5,3.6,10.3c0.4,3.7,1.1,4.6,4.5,4.6c2.9,0,3.9,2.6,4.2,7.8
			c0,0.5,0,0.8,0.1,1.8c0.1,3.1,0.3,4.2,0.8,4.7c0.6,0.7,1.9,0.1,4.1-2.3c1.6-1.7,3.1-3.7,4.6-5.8c1.8-2.7,6.9-11.7,7.9-13.1
			c2-2.8,3.7-4.2,5.8-4.2c3.5,0,6.1-3.7,9.8-12l1.8-4.1c0.6-1.3,1.1-2.5,1.7-3.7c0.7-1.4,1.6-2.4,2.6-2.9c0.6-0.3,0.8-0.5,2.1-0.9
			c1.5-0.5,2.1-1,2.4-2.2c0.4-1.6,0.1-4.5-0.9-9.4c-0.5-2.5-1-5.1-1.4-7.7c-0.2-1-0.7-4.8-0.9-5.6c-1-6.2-2.2-7.4-7.8-7.4
			c-3.4,0-5.5-1.9-7.8-6c-0.2-0.4-1.3-2.4-1.6-2.9c-1.9-3.3-3.4-3.9-6.1-1.2C243.6,363.1,241.3,367.4,238.4,377.6L238.4,377.6z
			 M267.3,389.5c-1.5,6.5-8.7,15.3-13.9,15.3c-2.8,0-3.9-3-3.7-7.9c0.2-3.5,1.1-7.9,2-10.6l0.8-2.3c0.3-0.9,0.6-1.8,1-2.7
			c1.9-4.8,4.1-7.5,7.1-7.5C265.3,373.8,268.8,383.4,267.3,389.5L267.3,389.5z M266.8,389.1c1.3-5.5-1.9-14.3-6.2-14.3
			c-2.8,0-4.8,2.5-6.6,7.1c-0.3,0.8-0.6,1.6-1,2.6c0,0-0.6,1.9-0.8,2.3c-0.9,2.6-1.8,6.9-2,10.1c-0.2,4.3,0.7,6.8,3.2,6.8
			C258.4,403.8,265.4,395.2,266.8,389.1L266.8,389.1z M230.7,409.8c1.1,0.2,2.3,0.8,3,1.8c1.1,1.5,1.1,3.6-0.1,6.1
			c-2.7,5.2-6.7,4.3-6.7-1.4C227,411.7,228.6,409.5,230.7,409.8z M230.7,410.8c-1.8-0.3-3.2,1.5-3.2,5.5c0,4.6,3.4,5.3,5.8,0.6
			c1.1-2,1-3.4,0.2-4.5C232.8,411.6,231.7,411,230.7,410.8L230.7,410.8z M246,184.8c2.4,2.4,9,8.2,10.1,9.4c1.4,1.4,2.6,3.3,3.7,5.6
			c0.7,1.6,1.4,3.4,1.9,5.2c1.2,3.8,0,7.7-3.2,11.6c-2.6,3.2-6.3,6.3-11.4,9.8c-2.5,1.7-10.2,6.7-10.9,7.2c-3.4,2.3-7.7,0.1-13-5.9
			c-2-2.3-4.1-5-6.7-8.5c-1.2-1.6-4.9-7-5.5-7.9c-1.4-2.1-2.9-4-4.5-5.7c-2.5-2.6-2.3-6.6,0.1-12.1c1.7-3.9,2.2-4.7,9.4-16.3
			c1.6-2.5,3.1-5.1,4.6-7.7c0.8-1.5,1.7-3.1,2.4-4.7c2.6-5.4,5.1-6.5,7.8-3.9c1.2,1.1,2.3,2.9,3.9,5.5c0.8,1.4,3.6,6.7,4.1,7.7
			C241.4,179.1,243.6,182.4,246,184.8L246,184.8z M245.8,185.7c-2.5-2.5-4.8-5.8-7.5-10.8c-0.5-1-3.4-6.3-4.1-7.7
			c-1.5-2.6-2.6-4.3-3.7-5.4c-2.5-2.4-4.7-1.4-7.2,3.7c-0.8,1.6-1.6,3.2-2.5,4.7c-1.3,2.3-2.7,4.6-4.6,7.8
			c-7.2,11.6-7.7,12.4-9.3,16.2c-2.2,5.1-2.4,8.4-0.2,10.6c1.2,1.2,2.5,3,4.5,5.8c0.6,0.9,4.4,6.2,5.5,7.9c2.1,3,4.4,5.9,6.7,8.5
			c5.2,5.8,9.4,8,12.6,5.8c0.8-0.5,8.4-5.5,10.9-7.2c5-3.5,8.7-6.6,11.3-9.7c3-3.7,4.1-7.1,3.1-10.3c-0.6-1.8-1.2-3.5-1.9-5.1
			c-1-2.2-2.2-4.1-3.5-5.4C254.7,194,248.2,188.1,245.8,185.7L245.8,185.7z M225.7,193.8c1.6-0.4,3-0.1,4.4,0.7
			c1.1,0.7,1.4,0.9,4.5,3.8c2.5,2.3,4.3,3.9,6.8,5.6c4.3,3,5.9,6.2,4.6,9.8c-1.1,2.9-4.2,5.9-9.2,9.2c-4.4,2.8-8,2.3-11.1-0.9
			c-2.4-2.6-4.3-6.5-6.3-12.3c-1.5-4.4-1.4-8.2,0.1-11.1C220.6,196,222.9,194.4,225.7,193.8L225.7,193.8z M225.7,194.8
			c-2.7,0.6-4.8,2.2-6,4.4c-1.3,2.5-1.4,5.8,0,9.8c1.9,5.7,3.8,9.5,6.1,12c3,3.1,6.4,3.6,10.7,0.8c5-3.2,8-6.1,9-8.8
			c1-2.8-0.3-5.5-4.3-8.2c-2.5-1.7-4.4-3.3-6.9-5.6c-3-2.8-3.3-3.1-4.4-3.7C228.5,194.6,227.1,194.4,225.7,194.8L225.7,194.8z
			 M99,408.7c0,4.8-0.8,7.6-2.3,8.9c-1.2,1.1-2.4,1.2-5.6,1.2l-0.9,0c-4.8,0-8.8-7.7-8.8-15.5c0-7.6,5.5-10.5,10.2-5.4
			c1.4,1.5,2.2,1.9,4.4,2.8C98.3,401.5,99,402.9,99,408.7z M98.4,408.7c0-5.3-0.5-6.3-2.5-7.1c-2.3-0.8-3.1-1.3-4.6-2.9
			c-4.4-4.8-9.5-2.1-9.5,4.6c0,7.3,3.8,14.5,8.3,14.5h0.9c3.1,0,4.3-0.1,5.4-1.1C97.8,415.5,98.4,413.1,98.4,408.7L98.4,408.7z
			 M115.7,290.8c1.9-1.3,4.5-2.7,8.3-4.6c1.3-0.6,8.6-4,10.7-5.1c10.2-4.9,16.4-8.9,19.8-13.4c7.7-10,19.1-33.9,22.7-47.8
			c1.2-4.5,2.4-6.4,4-6.3c0.7,0.1,1.4,0.4,2.2,1.2c0.6,0.5,1.2,1.1,1.8,1.7l0.7,0.6c2.5,2.3,4.3,3.4,6.6,3.4c3.7,0,5.2,3.1,4.3,7.9
			c-0.7,4.1-3.1,8.9-5.8,12c-4.3,5-6.1,17.3-6.1,33.6c0,3.6-0.7,6.3-2.1,8.4c-1,1.6-2.2,2.6-4.4,4.2l-0.5,0.4
			c-2.5,1.8-3.6,2.8-4.5,4.5c-2.6,5.1-6.5,7.2-10.5,7.2c-0.7,0-1.3,0.9-2.1,3.1c-0.2,0.4-0.7,1.9-0.8,2.2c-1.4,3.9-2.6,5.7-4.4,5.7
			c-4.1,0-5.6,0.9-11.3,6.9c-2.7,2.8-4.6,3.6-7.6,3.7c-0.1,0-0.2,0-0.5,0c-2.5,0.1-3.7,0.3-5.4,1.3c-1.6,1-3.1,2.2-4.6,3.6
			c-1.1,1-5.5,5-5.3,4.9c-4,3.7-6.9,6-9.8,7.6c-6.4,3.6-9.6,2.2-14.2-4.1c-1.3-1.9-1.4-4.4-0.4-7.6c0.8-2.4,2-5.1,4.2-9l0.9-1.6
			c2-3.6,2.3-4.1,3.1-5.5c1.2-2.3,1.6-3.5,2.8-7.6c1-3.4,1.7-5.1,3.3-7.1C112,293.7,113.6,292.3,115.7,290.8L115.7,290.8z
			 M115.9,291.8c-2.1,1.4-3.6,2.8-4.8,4.3c-1.4,1.9-2.1,3.5-3.1,6.7c-1.2,4.2-1.7,5.4-2.9,7.8c-0.7,1.4-1,2-3.1,5.6l-0.9,1.6
			c-2.1,3.8-3.4,6.4-4.1,8.8c-0.9,2.8-0.8,4.8,0.3,6.3c4.5,6.1,7.5,7.4,13.8,3.9c2.9-1.6,5.7-3.8,9.7-7.5c-0.2,0.1,4.2-3.9,5.3-4.9
			c1.5-1.4,3.1-2.6,4.7-3.6c1.8-1.1,3.1-1.3,5.6-1.4h0.5c3-0.1,4.8-0.8,7.4-3.6c5.8-6.1,7.4-7.1,11.5-7.1c1.7,0,2.7-1.6,4-5.3
			l0.8-2.2c0.9-2.4,1.6-3.5,2.5-3.5c3.9,0,7.7-2,10.2-6.9c0.9-1.8,2.1-2.9,4.7-4.7l0.5-0.4c4.5-3.1,6.1-5.7,6.1-11.6
			c0-16.6,1.8-29.2,6.3-34.4c2.6-3,4.8-7.7,5.5-11.5c0.7-4.1-0.4-6.6-3.8-6.6c-2.3,0-4.2-1.1-6.8-3.5c-3.9-3.7-3.5-3.3-4.5-3.4
			c-1.3-0.1-2.4,1.5-3.5,5.7c-3.6,14.1-15.1,38.2-22.9,48.2c-3.5,4.5-9.8,8.5-20,13.5c-2.1,1-9.3,4.4-10.7,5.1
			C120.4,289.1,117.8,290.5,115.9,291.8L115.9,291.8z M124.6,295.8c1.1,0,2.1-0.2,3.8-0.7c2.7-0.8,3.4-0.9,4.4-0.5
			c1.3,0.6,2,2.3,2,5.7c0,4.1-1.2,7.3-3.4,10.1c-1.7,2.1-3.4,3.5-7.3,6.4l-0.1,0.1l-1.2,0.9c-1.6,1.2-2.7,2.5-4.8,5.4l-0.4,0.6
			c-4.2,5.9-6.9,8-11.9,8c-2.6,0-3.6-2-3-5.6c0.5-2.8,1.9-6.6,4-11.1c0.7-1.4,1.4-2.8,2.2-4.3c1.6-3.1,5.8-10.6,5.9-10.8
			c0.2-0.5,0.5-0.9,0.7-1.3c1.8-2.7,3-3.1,7.3-2.9C123.5,295.8,124,295.8,124.6,295.8L124.6,295.8z M124.6,296.8c-0.6,0-1.1,0-2,0
			c-4.2-0.1-5.4,0.2-7,2.7c-0.2,0.4-0.5,0.7-0.7,1.2c-0.1,0.2-4.3,7.7-5.9,10.8c-0.7,1.4-1.4,2.8-2.1,4.3c-2.1,4.5-3.5,8.1-3.9,10.8
			c-0.5,2.9,0.2,4.3,2.5,4.3c4.9,0,7.5-2.1,11.6-7.8l0.4-0.6c2.1-3,3.3-4.4,5-5.6l1.2-0.9l0.1-0.1c3.9-2.8,5.6-4.3,7.2-6.3
			c2.1-2.7,3.2-5.6,3.2-9.3c0-2.9-0.5-4.3-1.6-4.7c-0.9-0.4-1.6-0.3-4.2,0.5C126.7,296.6,125.7,296.8,124.6,296.8L124.6,296.8z
			 M182.9,251.5c-1,5.4-1,6.8-0.5,12.8c0.6,7.1-0.7,16.6-2.8,16.6c-0.3,0-0.5,0-0.8,0.1l-0.3,0c-1.5,0.2-2.5,0.2-3.6-0.2
			c-3.4-1.1-5.4-5.1-5.4-13.4c0-13.9,1.1-19.7,4.2-26.3c0.5-1.2,0.9-2.4,1.3-3.8c0.3-1,1.4-5.1,1.4-5c2.3-8.1,4-11.5,6.3-10.4
			c0.6,0.3,1.1,0.8,1.9,1.6l0.7,0.8c0.5,0.6,1,1.2,1.6,1.6c0.4,0.3,0.9,0.3,2.5,0.3l0.4,0c1.6-0.1,2.5,0.1,3,0.7
			c0.8,0.9,0.6,2.6-0.6,4.9c-0.7,1.3-1.3,2.5-2,3.8C184.7,245.5,183.6,247.8,182.9,251.5z M182.4,251.1c0.7-3.9,1.8-6.2,7.4-16.5
			c0.8-1.5,1.4-2.6,2-3.7c1-2,1.1-2.9,0.7-3.3c-0.4-0.4-1.2-0.6-2.8-0.5l-0.4,0c-1.6,0.1-2.2,0-2.7-0.3c-0.5-0.4-1-0.9-1.7-1.7
			l-0.7-0.8c-0.5-0.7-1.1-1.1-1.7-1.5c-2-1-3.6,2.2-5.8,9.9c0-0.1-1.1,4-1.4,5c-0.4,1.4-0.8,2.7-1.4,3.9c-3,6.5-4.1,12-4.1,25.7
			c0,7.8,1.8,11.5,5,12.5c1,0.3,2,0.3,3.5,0.2c0.2,0,0.4,0,0.6-0.1c0.2,0,0.4,0,0.5,0c1.7,0,2.9-8.9,2.3-15.4
			C181.4,258.2,181.4,256.7,182.4,251.1z M177.6,263.6c0.3,0.5,1.3,1.9,1.3,1.9c1,1.6,1.1,3.3,0,6.4c-1.9,5.6-4.6,3.1-4.6-4.6
			c0-3.8,0.3-5.7,1.1-6C176.1,261,176.5,261.6,177.6,263.6z M176.9,265c-0.8-1.4-1.2-1.9-1.3-1.8c-0.1,0-0.3,1.2-0.3,4.1
			c0,5.9,1.4,7.2,2.7,3.5c0.8-2.3,0.8-2.8,0.2-3.7C178.3,267.1,177.3,265.7,176.9,265L176.9,265z M292.5,134.8
			c1.1-1.1,1.9-1.7,3-2.4l0.1-0.1c1.6-0.9,3.1-2.1,4.6-3.6c2.2-2.1,3.3-1.9,3.6,0.8c0.2,2,0.1,4-0.6,12.7
			c-1.2,13.6-4.7,26.1-11,36.3c-2.2,3.6-3.8,4.4-5.1,2.4c-1-1.6-1.6-4.6-2.4-10.5c-0.2-1.2-0.7-5.8-0.9-7c-0.4-3.1-0.9-6.2-1.4-9.2
			c-1.2-6.8-1.6-10.8-1.1-12.9c0.4-1.8,1.1-2.2,2.9-2.4c0.8-0.1,1.1-0.1,1.5-0.3l1-0.3c0.4-0.1,0.6-0.2,0.9-0.3
			c0.6-0.2,1-0.4,1.4-0.6C290,137.1,290.9,136.4,292.5,134.8L292.5,134.8z M292.7,135.7c-1.6,1.5-2.5,2.3-3.4,2.8
			c-0.4,0.2-0.9,0.4-1.5,0.6c-0.7,0.2-1.3,0.4-2,0.6c-0.4,0.1-0.7,0.2-1.5,0.3c-1.6,0.2-2.2,0.5-2.5,1.9c-0.4,1.8-0.1,5.6,1.1,12.2
			c0.5,3.1,1,6.2,1.4,9.3l0.9,7c0.8,5.7,1.4,8.6,2.2,10c1,1.6,2.3,0.9,4.4-2.4c6.1-10,9.6-22.3,10.8-35.7c0.7-8.5,0.9-10.5,0.6-12.3
			c-0.2-1.9-1-2-2.9-0.2c-1.5,1.5-3,2.7-4.6,3.6l-0.1,0.1C294.6,134,293.6,134.8,292.7,135.7L292.7,135.7z M290.4,142.3
			c0.7-0.3,1.3-0.8,2-1.4c0.2-0.2,1.3-1.3,1.7-1.7c0.8-0.7,1.5-1.3,2.4-1.9c1.4-0.9,2.4-0.8,3,0.4c0.5,0.9,0.7,2.3,0.7,4.2
			c0,0.4,0,0.7,0,1.4c0,5.6-2.4,16.9-5.9,22.8c-2.2,3.8-3.8,4.7-5.1,2.5c-1.1-1.7-1.8-4.7-3.5-12.9c-1-4.8-1.1-8.1-0.4-10.2
			c0.6-1.7,1.5-2.4,3-2.7l0.7-0.1C289.8,142.5,290.1,142.4,290.4,142.3L290.4,142.3z M289.3,144.6l-0.6,0.1
			c-1.2,0.3-1.9,0.8-2.3,1.8c-0.5,1.4-0.4,4.1,0.5,8.4c1.6,7.8,2.3,10.7,3.2,12.1c0.8,1.3,1.9,0.8,3.8-2.5
			c3.2-5.5,5.5-16.2,5.5-21.3c0-0.6,0-0.9,0-1.3c0-1.4-0.2-2.3-0.4-2.8c-0.3-0.6-0.9-0.7-2,0c-0.8,0.5-1.6,1.1-2.3,1.8
			c-0.4,0.3-1.5,1.5-1.7,1.7c-0.7,0.7-1.5,1.2-2.2,1.6C290.3,144.4,289.9,144.5,289.3,144.6L289.3,144.6z M171.2,55.6
			c-0.8,4.3-1.8,7.3-3.7,11.4l-1.3,3c-0.5,1-0.9,2.1-1.4,3.2c-0.9,2.3-1.7,4.9-2.4,7.5c-1.5,5.7-3.7,10.2-6.7,13.9
			c-2.2,2.8-4.3,4.6-8.1,7.6c-5.7,4.4-8.5,1.3-14.1-16.4c-1.5-4.7-4.6-8.6-9.3-12.7c-1.6-1.3-6.7-5.2-7.5-5.9
			c-2.6-2.2-3.6-3.7-3.3-5.9c0.3-2.3,2.7-4.1,8-6.1c8.6-3.3,14-3.8,20.7-3c4.1,0.5,5,0.5,6.6-0.3c1-0.5,2-1.3,3.1-2.6l1.4-1.7
			c5.1-6.1,6.7-8,9-9.9c3.1-2.7,5.5-3.3,7.2-1.4C173.2,40.5,173.4,44.1,171.2,55.6L171.2,55.6z M170.3,54.9
			c2-10.7,1.9-13.3-1.3-16.8c-1.4-1.5-3.4-1-6.3,1.5c-2.2,1.9-3.8,3.7-8.8,9.8l-1.4,1.7c-1,1.3-2.2,2.2-3.4,2.8
			c-1.7,0.8-2.7,0.8-6.9,0.3c-6.7-0.8-11.9-0.3-20.4,3c-2.5,1-4.4,1.9-5.6,2.8c-1.1,0.8-1.6,1.5-1.6,1.9c-0.1,0.6,0.8,1.8,2.7,3.5
			c0.8,0.7,5.9,4.6,7.5,5.9c4.9,4.2,8.2,8.3,9.8,13.4c5.4,16.9,7.7,19.6,12.8,15.6c3.8-2.9,5.8-4.8,7.9-7.4
			c2.8-3.5,4.9-7.8,6.3-13.1c0.7-2.9,1.6-5.4,2.5-7.8c0.5-1.1,0.9-2.2,1.4-3.3l1.3-3C168.5,61.7,169.5,58.9,170.3,54.9L170.3,54.9z
			 M166.8,54.5c-4.1,12.8-9.6,21.8-17.3,25.2c-4.1,1.8-6.5-0.8-6.8-5.9c-0.3-4.5,1.2-9.1,3.1-9.1c1.6,0,2.9-1.7,8-9.2
			c0.8-1.1,1.3-2,1.9-2.7c2.3-3.2,4-5.2,5.6-6.1c2.9-1.7,4.8-2.2,5.9-1.2C168.5,46.7,168.4,49.7,166.8,54.5L166.8,54.5z M166.4,54
			c1.4-4.4,1.5-6.7,0.6-7.5c-0.9-0.8-2.8-0.3-5.5,1.3c-1.5,0.9-3.2,2.8-5.4,5.9c-0.6,0.8-1.1,1.6-1.9,2.7c-5.2,7.7-6.5,9.4-8.3,9.4
			c-1.6,0-2.9,4-2.6,7.9c0.3,4.5,2.4,6.8,6.2,5.1C156.9,75.4,162.3,66.6,166.4,54z M233-58.3c7.2,5,10.8,5,16.4,0
			c1.6-1.4,2.8-2.9,5.7-6.8c2.9-3.9,4.2-5.5,5.8-6.9c2.1-1.9,4-2.4,5.8-1.3c2,1.3,3.2,12.3,3.5,28.5c0.3,14.2-0.3,28.9-1.3,34.2
			c-0.9,4.9-3,8.2-6,10c-2.2,1.3-4.4,1.9-6.7,1.8c-3,0-4.7,2.4-6.3,7.6c-0.2,0.6-0.8,2.6-0.9,2.9c-0.9,2.9-1.6,4.3-2.6,5
			c-0.5,0.3-1.1,0.8-2,1.7l-1.3,1.2c-0.5,0.5-1,0.9-1.4,1.3c-3.3,3.1-6.1,4.7-8.9,4.7c-3,0-5.2,2.1-7.3,5.9
			c-0.6,1.1-2.2,4.5-2.4,4.9c-1.3,2.4-3.1,4.2-5.6,6.1c-0.7,0.5-3.1,2.1-3.2,2.2l-1.1,0.8c-0.5,0.4-0.9,0.6-1.4,0.8
			c-2.9,1.1-5.8-0.5-9.3-4.4c-0.7-0.7-2.7-3.1-3-3.4c-1.1-1.2-2.1-1.5-4.7-1.9l-0.9-0.1c-2.5-0.4-4-1.1-5.3-3
			c-2.6-3.6-3.5-7.8-2.9-12.3c0.7-5.4,3.4-11,7.7-17.3c1.1-1.6,2.2-3.1,3.4-4.6c-0.2,0.2,2.2-2.9,2.7-3.6c1.4-1.9,2.5-3.9,6.6-12
			l0.6-1.1c1.8-3.6,3.1-5.9,4.2-7.8c1.5-2.5,2.4-6,3.9-13.1l0.3-1.6c1.4-6.9,2.2-10,3.6-12.3c0.7-1.3,3.5-6.5,4.1-7.5
			C225-62.7,227-62.4,233-58.3L233-58.3z M232.9-57.3c-5.8-4-7.8-4.3-9.7-1.5c-0.6,0.9-3.3,6.1-4.1,7.4c-1.3,2.2-2.1,5.2-3.4,12
			l-0.3,1.6c-1.5,7.3-2.4,10.8-4,13.5c-1.7,2.8-3.2,5.8-4.7,8.9c-4.2,8.2-5.2,10.2-6.7,12.2c-0.5,0.7-2.9,3.8-2.8,3.6
			c-1.3,1.7-2.3,3.1-3.4,4.6c-4.2,6.1-6.9,11.6-7.5,16.7c-0.5,4.2,0.3,7.9,2.7,11.3c1.2,1.7,2.6,2.4,5,2.8l0.9,0.1
			c2.7,0.4,3.8,0.8,4.9,2.1c0.3,0.4,2.3,2.7,3,3.4c3.5,3.8,6.2,5.4,9,4.3c0.4-0.2,0.9-0.4,1.3-0.8c0.4-0.3,0.7-0.5,1.1-0.8
			c0.1-0.1,2.5-1.7,3.2-2.2c2.5-1.8,4.2-3.6,5.4-5.9c0.2-0.4,1.8-3.8,2.4-4.9c2.2-4,4.5-6.2,7.6-6.2c2.7,0,5.4-1.6,8.7-4.6
			c0.4-0.4,0.9-0.8,1.4-1.3c0.1-0.1,1-1,1.3-1.2c1-0.9,1.6-1.5,2.1-1.8c0.8-0.5,1.4-1.8,2.3-4.5l0.9-2.9c1.8-5.5,3.6-8.1,6.8-8.1
			c2.3,0,4.5-0.5,6.6-1.8c2.8-1.8,4.8-4.8,5.6-9.4c1-5.1,1.5-19.8,1.2-33.8c-0.3-15.5-1.5-26.5-3.2-27.5c-1.6-1-3.4-0.6-5.4,1.2
			c-1.6,1.4-2.8,2.9-5.7,6.8c-2.9,3.9-4.2,5.5-5.8,6.9C243.9-52.3,240.2-52.3,232.9-57.3z M240.2-36.8c2.8,0,3.9-0.2,5-1
			c0.7-0.4,5.2-4.8,7.7-7c1-0.8,1.8-2.4,3.4-6c1.3-3,1.7-3.8,2.3-4.8c1.9-3.4,3.7-3.3,5.3,1.2c3.2,8.9,2.9,15.9,0,27
			c-0.5,1.8-0.9,3.6-1.3,5.5c-0.2,0.8-0.5,2.7-0.6,2.9c-0.1,0.5-0.2,0.8-0.3,1.2c-0.3,1.1-0.8,2.2-2.1,4.7c-1.2,2.4-2.7,3.3-6.1,4.3
			c-0.9,0.3-1.1,0.4-1.6,0.5c-3.1,1.1-5,2.7-6.3,6.1c-1.8,4.6-4.1,7.5-7.8,10.7c-0.3,0.2-0.6,0.5-0.9,0.8l-0.9,0.8
			c-1.4,1.1-2.7,2.4-4,3.9c-1.3,1.6-2.5,2.4-4.9,3.5c-4.4,2.1-6.4,3.8-9,9.4c-2.7,5.6-5.3,7.6-8.6,6.7c-2.8-0.8-5.5-3-12.2-9.5
			c-3.3-3.2-3.3-7.8-0.8-13.6c1.8-3.9,1.8-4.1,10.1-16.4c4.2-6.3,6.7-10.6,8.6-14.9c1.3-3,2.2-5.7,2.6-8.3
			c2.9-18.3,6.5-22,11.8-15.6c1,1.2,3.4,4.6,3.7,4.9C235.2-37.6,236.8-36.8,240.2-36.8L240.2-36.8z M240.2-34.8
			c-3.5,0-5.4-0.9-7.3-3.3c-0.3-0.4-2.7-3.7-3.7-4.9c-4.7-5.7-7.6-2.7-10.3,14.5c-0.4,2.9-1.4,5.9-2.8,9c-2,4.5-4.5,8.8-8.8,15.2
			c-8.1,12.2-8.2,12.4-9.9,16.2c-2.2,4.9-2.1,8,0.5,10.5c6.6,6.4,9.3,8.5,11.9,9.3c3,0.8,5.3-0.9,7.7-6.1c2.8-6,4.9-7.8,9.5-10
			c2.3-1.1,3.4-1.8,4.6-3.2c1.3-1.5,2.7-2.9,4.1-4l0.9-0.8l0.9-0.8c3.5-3.1,5.7-5.9,7.4-10.1c1.6-3.9,3.6-5.6,7-6.8
			c0.4-0.1,0.6-0.2,1.6-0.5c3.2-1,4.5-1.8,5.5-3.8c1.2-2.4,1.7-3.3,1.9-4.3c0.1-0.3,0.2-0.6,0.2-0.9c0-0.2,0.4-2.1,0.6-2.9
			c0.3-1.6,0.8-3.4,1.3-5.6c2.7-10.5,3-16.8,0-25c-1.2-3.4-2.3-3.5-3.8-0.9c-0.6,1-0.9,1.7-2.2,4.7c-1.7,3.9-2.6,5.6-3.8,6.6
			c-2.5,2.1-7.1,6.5-7.8,7C244.3-35,243.1-34.8,240.2-34.8L240.2-34.8z M233.6-26.2c2.8,3.9,5.4,3.7,9.4,0.9c2.8-1.9,3.1-2.1,4-2.1
			c1.3,0,2.2,1.4,2.7,4.5c0.9,5-1.2,8.5-6.4,12.7C242-9.1,235-4.1,233-2.5c-4.1,3.2-7.2,6.4-9.8,10.2c-6.7,9.8-9.5,11.9-12.3,9.7
			c-0.7-0.6-1.3-1.2-1.9-2l-1-1.3c-0.4-0.5-0.8-0.9-1.2-1.4c-1.7-2-1.5-4.3,0.4-7.3c0.7-1.1,5.5-7.6,7-9.9
			c3.7-5.7,6.2-11.5,7.5-18.3c1.6-8.5,2.5-12.1,3.5-13.4c0.9-1.2,1.7-0.5,3.2,1.9c0.3,0.6,1.8,3.1,2.1,3.7
			C231.7-29,232.6-27.6,233.6-26.2L233.6-26.2z M233.3-25.4c-1-1.4-2-2.9-3-4.6c-0.4-0.6-1.8-3.2-2.1-3.7c-1.3-2.2-1.9-2.7-2.6-1.8
			c-0.9,1.1-1.8,4.7-3.3,12.9c-1.3,7.1-3.9,13-7.6,18.8c-1.5,2.3-6.3,8.8-7,9.9c-1.7,2.7-1.8,4.2-0.5,5.7l1.2,1.4l1,1.3
			c0.8,0.9,1.3,1.5,1.8,1.9c2.5,2.1,5.2,0.1,11.8-9.6c2.6-3.8,5.8-7,9.9-10.3c1.9-1.6,9-6.6,10.4-7.7c4.9-4,6.8-7.2,6.1-11.4
			c-0.5-2.7-1.2-3.8-2.2-3.8c-0.8,0-1.1,0.2-3.8,2.1C239-21.4,236.3-21.2,233.3-25.4L233.3-25.4z"/>
	</g>
</g>
</svg>
